<mxfile host="Electron" agent="Mozilla/5.0 (Windows NT 10.0; Win64; x64) AppleWebKit/537.36 (KHTML, like Gecko) draw.io/25.0.2 Chrome/128.0.6613.186 Electron/32.2.5 Safari/537.36" version="25.0.2" pages="2">
  <diagram name="第 1 页" id="3xUTaUgCC9NKu3znaScp">
    <mxGraphModel dx="1593" dy="781" grid="1" gridSize="10" guides="1" tooltips="1" connect="1" arrows="1" fold="1" page="0" pageScale="1" pageWidth="827" pageHeight="1169" math="0" shadow="0">
      <root>
        <mxCell id="0" />
        <mxCell id="1" parent="0" />
        <mxCell id="gZq5AvmwAYu3Xe7hFHVc-3" style="edgeStyle=orthogonalEdgeStyle;rounded=0;orthogonalLoop=1;jettySize=auto;html=1;fontFamily=Comic Sans MS;fontSize=13;" edge="1" parent="1" source="gZq5AvmwAYu3Xe7hFHVc-1">
          <mxGeometry relative="1" as="geometry">
            <mxPoint x="-120" y="200" as="targetPoint" />
          </mxGeometry>
        </mxCell>
        <mxCell id="gZq5AvmwAYu3Xe7hFHVc-1" value="&lt;div style=&quot;font-size: 13px;&quot;&gt;&lt;div style=&quot;font-size: 13px;&quot;&gt;StreamExecutionEnvironment#fromSource()&lt;/div&gt;&lt;/div&gt;" style="rounded=0;whiteSpace=wrap;html=1;fillColor=default;fontColor=default;labelBackgroundColor=none;fontFamily=Comic Sans MS;fontSize=13;" vertex="1" parent="1">
          <mxGeometry x="-340" y="10" width="440" height="60" as="geometry" />
        </mxCell>
        <mxCell id="gZq5AvmwAYu3Xe7hFHVc-6" style="edgeStyle=orthogonalEdgeStyle;rounded=0;orthogonalLoop=1;jettySize=auto;html=1;fontFamily=Comic Sans MS;fontSize=13;" edge="1" parent="1" source="gZq5AvmwAYu3Xe7hFHVc-2">
          <mxGeometry relative="1" as="geometry">
            <mxPoint x="110" y="250" as="targetPoint" />
          </mxGeometry>
        </mxCell>
        <mxCell id="gZq5AvmwAYu3Xe7hFHVc-2" value="DataStreamSource#DataStreamSource()" style="rounded=0;whiteSpace=wrap;html=1;fontFamily=Comic Sans MS;fontSize=13;" vertex="1" parent="1">
          <mxGeometry x="-260" y="220" width="280" height="60" as="geometry" />
        </mxCell>
        <mxCell id="gZq5AvmwAYu3Xe7hFHVc-4" value="&lt;div style=&quot;background-color: rgb(30, 31, 34); color: rgb(188, 190, 196); font-size: 13px;&quot;&gt;&lt;div style=&quot;font-size: 13px;&quot;&gt;new DataStreamSource()&lt;/div&gt;&lt;/div&gt;" style="text;html=1;strokeColor=none;fillColor=none;align=center;verticalAlign=middle;whiteSpace=wrap;rounded=0;fontFamily=Comic Sans MS;fontSize=13;" vertex="1" parent="1">
          <mxGeometry x="-150" y="120" width="240" height="30" as="geometry" />
        </mxCell>
        <mxCell id="gZq5AvmwAYu3Xe7hFHVc-5" value="&lt;div style=&quot;background-color: rgb(30, 31, 34); color: rgb(188, 190, 196); font-size: 13px;&quot;&gt;&lt;div style=&quot;font-size: 13px;&quot;&gt;new SourceTransformation()&lt;/div&gt;&lt;/div&gt;" style="rounded=0;whiteSpace=wrap;html=1;fontFamily=Comic Sans MS;fontSize=13;" vertex="1" parent="1">
          <mxGeometry x="120" y="220" width="280" height="60" as="geometry" />
        </mxCell>
        <mxCell id="gZq5AvmwAYu3Xe7hFHVc-8" value="&lt;div style=&quot;background-color: rgb(30, 31, 34); color: rgb(188, 190, 196); font-size: 13px;&quot;&gt;&lt;div style=&quot;font-size: 13px;&quot;&gt;StreamGraphGenerator#static{}&lt;/div&gt;&lt;/div&gt;" style="rounded=0;whiteSpace=wrap;html=1;fontFamily=Comic Sans MS;fontSize=13;" vertex="1" parent="1">
          <mxGeometry x="460" y="390" width="340" height="60" as="geometry" />
        </mxCell>
        <mxCell id="gZq5AvmwAYu3Xe7hFHVc-9" value="" style="curved=1;endArrow=classic;html=1;rounded=0;entryX=0;entryY=0;entryDx=0;entryDy=0;dashed=1;fontFamily=Comic Sans MS;fontSize=13;" edge="1" parent="1" target="gZq5AvmwAYu3Xe7hFHVc-8">
          <mxGeometry width="50" height="50" relative="1" as="geometry">
            <mxPoint x="280" y="280" as="sourcePoint" />
            <mxPoint x="330" y="230" as="targetPoint" />
            <Array as="points">
              <mxPoint x="330" y="280" />
              <mxPoint x="430" y="350" />
            </Array>
          </mxGeometry>
        </mxCell>
        <mxCell id="gZq5AvmwAYu3Xe7hFHVc-17" style="edgeStyle=orthogonalEdgeStyle;rounded=0;orthogonalLoop=1;jettySize=auto;html=1;fontFamily=Comic Sans MS;fontSize=13;" edge="1" parent="1" source="gZq5AvmwAYu3Xe7hFHVc-10">
          <mxGeometry relative="1" as="geometry">
            <mxPoint x="560" y="599.9999999999998" as="targetPoint" />
          </mxGeometry>
        </mxCell>
        <mxCell id="gZq5AvmwAYu3Xe7hFHVc-10" value="&lt;div style=&quot;background-color: rgb(30, 31, 34); color: rgb(188, 190, 196); font-size: 13px;&quot;&gt;&lt;div style=&quot;font-size: 13px;&quot;&gt;&lt;div style=&quot;font-size: 13px;&quot;&gt;&lt;div style=&quot;font-size: 13px;&quot;&gt;SourceTransformationTranslator&lt;/div&gt;&lt;/div&gt;&lt;/div&gt;&lt;/div&gt;" style="rounded=0;whiteSpace=wrap;html=1;fontFamily=Comic Sans MS;fontSize=13;" vertex="1" parent="1">
          <mxGeometry x="90" y="570" width="340" height="60" as="geometry" />
        </mxCell>
        <mxCell id="gZq5AvmwAYu3Xe7hFHVc-11" value="" style="curved=1;endArrow=classic;html=1;rounded=0;entryX=0.579;entryY=-0.048;entryDx=0;entryDy=0;exitX=0;exitY=1;exitDx=0;exitDy=0;entryPerimeter=0;dashed=1;fontFamily=Comic Sans MS;fontSize=13;" edge="1" parent="1" source="gZq5AvmwAYu3Xe7hFHVc-8" target="gZq5AvmwAYu3Xe7hFHVc-10">
          <mxGeometry width="50" height="50" relative="1" as="geometry">
            <mxPoint x="290" y="290" as="sourcePoint" />
            <mxPoint x="470" y="400" as="targetPoint" />
            <Array as="points">
              <mxPoint x="420" y="520" />
            </Array>
          </mxGeometry>
        </mxCell>
        <mxCell id="gZq5AvmwAYu3Xe7hFHVc-13" value="转成 StreamGraph 的点&amp;nbsp;Vertex" style="text;html=1;strokeColor=none;fillColor=none;align=center;verticalAlign=middle;whiteSpace=wrap;rounded=0;fontFamily=Comic Sans MS;fontSize=13;" vertex="1" parent="1">
          <mxGeometry x="470" y="450" width="240" height="30" as="geometry" />
        </mxCell>
        <mxCell id="gZq5AvmwAYu3Xe7hFHVc-14" value="&lt;div style=&quot;background-color: rgb(30, 31, 34); color: rgb(188, 190, 196); font-size: 13px;&quot;&gt;&lt;div style=&quot;font-size: 13px;&quot;&gt;new SourceOperatorFactory()&lt;/div&gt;&lt;/div&gt;" style="rounded=0;whiteSpace=wrap;html=1;fontFamily=Comic Sans MS;fontSize=13;" vertex="1" parent="1">
          <mxGeometry x="635" y="760" width="330" height="60" as="geometry" />
        </mxCell>
        <mxCell id="gZq5AvmwAYu3Xe7hFHVc-18" style="edgeStyle=orthogonalEdgeStyle;rounded=0;orthogonalLoop=1;jettySize=auto;html=1;fontFamily=Comic Sans MS;fontSize=13;" edge="1" parent="1" source="gZq5AvmwAYu3Xe7hFHVc-16">
          <mxGeometry relative="1" as="geometry">
            <mxPoint x="800" y="750" as="targetPoint" />
            <Array as="points">
              <mxPoint x="800" y="750" />
            </Array>
          </mxGeometry>
        </mxCell>
        <mxCell id="gZq5AvmwAYu3Xe7hFHVc-16" value="&lt;div style=&quot;background-color: rgb(30, 31, 34); color: rgb(188, 190, 196); font-size: 13px;&quot;&gt;&lt;div style=&quot;font-size: 13px;&quot;&gt;&lt;div style=&quot;font-size: 13px; text-align: left;&quot;&gt;SourceTransformationTranslator#translateInternal()&lt;/div&gt;&lt;/div&gt;&lt;/div&gt;" style="rounded=0;whiteSpace=wrap;html=1;fontFamily=Comic Sans MS;fontSize=13;" vertex="1" parent="1">
          <mxGeometry x="570" y="570" width="460" height="60" as="geometry" />
        </mxCell>
        <mxCell id="gZq5AvmwAYu3Xe7hFHVc-19" value="构建算子实例" style="text;html=1;strokeColor=none;fillColor=none;align=center;verticalAlign=middle;whiteSpace=wrap;rounded=0;fontFamily=Comic Sans MS;fontSize=13;" vertex="1" parent="1">
          <mxGeometry x="970" y="960" width="150" height="30" as="geometry" />
        </mxCell>
        <mxCell id="gZq5AvmwAYu3Xe7hFHVc-20" value="&lt;div style=&quot;background-color:#1e1f22;color:#bcbec4&quot;&gt;&lt;pre style=&quot;font-family:&#39;JetBrains Mono&#39;,monospace;font-size:12.8pt;&quot;&gt;SourceOperatorFactory#createStreamOperator()&lt;/pre&gt;&lt;/div&gt;" style="rounded=0;whiteSpace=wrap;html=1;" vertex="1" parent="1">
          <mxGeometry x="650" y="900" width="470" height="60" as="geometry" />
        </mxCell>
      </root>
    </mxGraphModel>
  </diagram>
  <diagram id="3St_KP2rG7WWWLZePQ9p" name="第 2 页">
    <mxGraphModel dx="2234" dy="1254" grid="1" gridSize="10" guides="1" tooltips="1" connect="1" arrows="1" fold="1" page="0" pageScale="1" pageWidth="827" pageHeight="1169" math="0" shadow="0">
      <root>
        <mxCell id="0" />
        <mxCell id="1" parent="0" />
        <UserObject label="org.apache.flink.runtime.scheduler.ExecutionGraphHandler#requestNextInputSplit&#xa;&#xa;JobMaster 会判断指定的节点是否包含 SplitAssigner " link="org.apache.flink.runtime.scheduler.ExecutionGraphHandler#requestNextInputSplit" id="jtxe0TLU620u3kf13cWX-2">
          <mxCell style="text;whiteSpace=wrap;align=left;verticalAlign=middle;" vertex="1" parent="1">
            <mxGeometry x="-520" y="-10" width="470" height="40" as="geometry" />
          </mxCell>
        </UserObject>
        <mxCell id="jtxe0TLU620u3kf13cWX-3" value="" style="shape=image;verticalLabelPosition=bottom;labelBackgroundColor=default;verticalAlign=top;aspect=fixed;imageAspect=0;image=data:image/png,iVBORw0KGgoAAAANSUhEUgAABToAAACPCAIAAABVifP7AAAgAElEQVR4Aey993cUx7Y/et6637e+6dx7bIKkma7cPUkSApmMycYGjDEZE2yCCEJCIKJxwiYZk5NtMDbZJAkRlTUzEkLgE3yOz73rxfXuej+8/+StXR2mJ6g1AiQELq1eWjXdFXZ9qrqqPrX3rv4DoeIZL0Y5o/wZM+mF5Kac6r9CQCGgEFAI/N4QyGaK+b1houqrEFAIKAQUAgoBhcCzI+Cxxhj95sTRb070iJDNoz9kE8k7jllJ7zh94emzN4bKQSGgEFAIKAReRgSymYNexnopmRUCCgGFgEJAIaAQeLEIeKwxFF3vnl3Ai21IVbpCQCGgEFAIvCgEPKZS59GLkk2VqxBQCCgEFAIKAYXAy4uAs5BIDyi6rug6uCGoSyGgEFAIKAS8EUifQdPveOegnioEFAIKAYWAQkAhoBBIRyB9ReHcUXRd0XXF1RUCCgGFgEKgawScidMjkD4BqzsKAYWAQkAhoBBQCCgEvBHwWFo8H7ruXbz3U1M4M46HoH3kkXdd1FOFgEJAIaAQeFURyGYaelXrruqlEFAIKAQUAgoBhUDPIeCxxuhzdB2T7qm7PerWE496rpFUzgoBhYBCQCHQlxHIZk7py/Ir2RQCCgGFgEJAIaAQ6JsIeKwx+hZdp5RT0qc/59Y3G1hJpRBQCCgEFAI9jYDHVOo86mkZVP4KAYWAQkAhoBBQCLx6CDgLifRA36LrAD1h6VL2nTuvXudQNVIIKAQUAgqBbBDIZibKJh8VRyGgEFAIKAQUAgoBhYAbAY81Rt+i65xyTplbdBVWCCgEFAIKAYVAX0DAYyp1HvUFOZUMCgGFgEJAIaAQUAi8XAg4C4n0QN+i6xoWiOkvF7hKWoWAQkAhoBD4PSCQPoOm3/k94KDqqBBQCCgEFAIKAYXA80UgfUXh3OlbdD0H6bk8+Hwrr3JTCCgEFAIKAYXAsyPgTJwegWcvReWgEFAIKAQUAgoBhcDvDQGPpUXfout+zP1U/N6aR9VXIaAQUAgoBPo+Ah5TqfOo79dCSagQUAgoBBQCCgGFQF9DwFlIpAf6Fl0nhGJM+xp8Sh6FgEJAIaAQUAikz6DpdxRKCgGFgEJAIaAQUAgoBLqLQPqKwrnT9+g6UXSdd7eBVXyFgEJAIaAQ6GkEnInTI9DTMqj8FQIKAYWAQkAhoBB49RDwWFr0LbqOKcOKrlNF1xUCCgGFgEKgzyHgMZU6j169BYSqkUJAIaAQUAgoBBQCPY2As5BID/Q5uo6o0q73uUVqT3dQlb9CQCGgEOj7CKTPoOl3+n4tlIQKAYWAQkAhoBBQCPQ1BNJXFM6dvkbXOerb312nhBUMHVsc9mLUiFEwEYAz8wxOA4walOqECkQ5hktgKqwGIILCpcv/glLz4oQmLkw5YvKSyQnhlHBCBIE8A5gGdREJBwsCPKgjjqjI0YXGdAZ56hTrBEPR3br6WvdV8igEXhQCGd93UfTmiEHqAxZeY2APtdcLRz6bgbSH6q6yVQgoBBQCCgGFgELgFUbAY42h6Hq2i07MgqPmbzlw/kFj9G7FeK/j6zFlhHLJvXXGDJuu6wmW7ubPRAD3lpdN14VD18E7gDJkX5hyYnF1k67rhBqYBhANERpgRCeUY8YIFZQYchcASLtH82d89Aq/CapqCoEsEfB43/WPzrS0tFw+sWvxW0MoYVlmqKI9OwK9gLxWMG7ppq9P/fjz1Zu3L348M0XmjANmys2UJOqnQkAhoBBQCCgEFAIKgS4RSFlOuH/2NboOKuj0+gTfmPDjrrJH3yw/NDWU/rQX7iBjfMk3t5ti7Q/b2pvv/fDhCN2jUBNf4N5Mh4taFyFmQKrQma3xJgIn0XWdmmSecAwXw4QhQhGhEAatu0XUZbaQVR4Sr/lEDjYwCzDKdYI5UHrDYezu9s4m7FE19egZEeCTVp+8Hq29e2vnB0OfMas+kvzVqxGj3Pt9p7P3Vjd0wFDQ3Hyi8v0gJ32kLV55MXoaeTp4zr6q1odtMM4/bGu/v++DFEjV+JkCiPqpEFAIKAQUAgoBhcBzQcBjjfF86LpHAd16hKlAJANdH7dw+T9Olf/jVPlfNo9lntbyVIQXLFhQ9VXp42MQH65jJTtHerHrLiHGbMSKk7Ut8Y5o7a3dq6aF9S70acCTJUUnTBDGKRPmT2bfhzvyIhS4OrIYu0PsTWW7Q9cpJhRhIqm7SdfN/AWFrQ2mUZFDdP+4ReWV2zYsmxYhhk4MTAxg7CCGvS+QdaBLQPpaBDz6g8qtn2xeMVtwL6sHFBq+YOM3P1y9X9cUr6utu3L6UOWC8Zxl6G9dVlBbcLwlDoTNuVpaqtcP7zqrNzffMJPEjpd49OQsa8Qop4TN+jpq5nm2dESXkj/3CFnW6LmX23MZZvO+k8jIOdvP3W9+FIvFz26a+nS9qOeq8GJz5pPn/XpinTX8ykH4349+tGVIhmEz+5hOjXoU+Qnbbz1sa4/d+HbZtOGGbjiFOoFspjMnsgooBBQCCgGFgEJAIaAQyBIBjzVGH6Prkrum10oMnXJ577q/Hlp2ZHok/alzhxI286Nlv55Y97fjpdGvV9bvXVW/d1V016JNI55J/TVy3U9NsfaWhisVk/OdsrwCJEhNf3UmTdMZGMYzYnACfuyM6ozpjANjd9F13dS9W5bzksCDdh0zjCnGBMMfxYSDyzoLSL29YBSyJpwjoeMPjzS1Pm45XzkYFwRJGNMAkTKwrFm600u8qpbJ9uGFx8dzD0IDnd80pPOtHBR+Z8vF+MO29tZ4W11t3b0mYNqxWPzixzOfgmuh93ddr757q7rmVnVNVc2DxujDLOk6fav8bHW04cGdXUu8qHU2NTJhR+ydL6r+3Bpva4l3NBxd/RR1ecbmy7JGz1hKbybP8n2nhL2x7OiDlo7G6N0db4Nhi7pMBPj4GXV7Sszht37vqsfHyjul61nHdGPbc8gvOvb4YVv7T2Wj3MW5w84g6RFwx1dhhYBCQCGgEFAIKAQUAtkg4LG0eDnoejaVlHGKj3294bfjqw5NeG428zgwa/eDx7FY/NSaTtdwKeKB07jOaZgSwQkyiBYgWpBhzsGwXfezCGG6gN+c8wBhukbB6J0hSjEnREfE8JMAogaQeWZgFiREMI1qWB/IQj6sI41SogseYoQRzUeIRgQOLzxY3/q47qeKoC/IUFCjQcwNagjETIV8N3TsKdXp+z+zIbem3ix+87tlUwZRwjRROGnNkZqmJ/Hm+u0znsn4gpDZ+2uzpetZgplNjcys8PBNV6KPG69cPNvQEX1waJpQH1Z4Jtrcrfcds+DcfQ0P29qjp8oKyDP1oiw7xksXDdHhx/dv7Iyuu6uTfUwGJ3T0CPJzvoEdvR/XjXQL5g57TKXOI3d8FVYIKAQUAgoBhYBCQCGQDQLOQiI90MfoujQOz6ZKGeP488f+fGjLb8fnLQ/gjBGe4iZfeLQp1t5WvX+KyHY5TjCjIUyHaEDac0M4J4xyIhRRIXI0IfqLIsR1g+UZgul6iApD44wQIvyIIoqJ8JFADglrNEiZQUQYGYMoCeo+loeD/8oLByCh5eQxJAJiEMcM5Q0gKIfx3KGz9tfGH9/5oRwPEJrf8NMQMgwaYXlc0XXu429u+flJNBrdMz/s7gOz99Q9bGuv3jnbfbO74RdL1wtWnmmJd9zY/VHF2T83x+9vm+zlDtDdqv0O43f3ffeP2XC5pSPefG31Gwr5DBsl2ZPw7GOa3bInkH/r07sP29pvfvx2Zz0/fQZNv9NZWnVfIaAQUAgoBBQCCgGFQGcIpK8onDt9j67D98+sZd/CZaVuB8h/nCp/sLzIeZoe8OePvXFo4/Ol6+YC7s7u+Z0dAT1zb/PDtvYHXy9yXJEp0fMYZoWTj1y499uT/3frqj9oKEQI5Tz3v/xR5BZOWrxl3+EbjVfuN7W0tFw4uX932ZzBr/8hBLp4oWHhJ4afBt9Zu+fe/frq8/tyh0zbsfvkldbmOw3V1eePfFm+tDj3f+TkkOLBw//4+oiv6n6ta/+PR3/786Xa/60u/st//ns0WtfS1BSvi7U3ttxvju+fDafUJVTrWB89u/Lg91dra5vbGurqrp07sX35lDDY2CfihN/bW9P0pKWlunJSkonv4BXf1kYfx+vOrXhq54JRczcf+vlWbayxsfHmuRMV7w8tLPnhYVt70+FlKa2JQsNnbzj0w9X79c2t9XX1P//07ccfve12TffxGbsfgOVqZ1dr/dGZ4HoAfQnzqXtuQY3WjUlyiwiM/2Dt2tJV749xSkfsnd3Vj5vj9ze/FRr30a5TP9eBo/u9mu93VUwsyqy4zoauT/+qPkXOG9unOIWagW7VyEm78EBLPN56ZEnk7c/vP2xrP78+URcnDiWscMqyT4/9fP12I3gNtLTU3Lx67NM1bxal7kBlHzObGjkCsCza3UF+y5TwxJV7z157UN/c+uBO9amdZaMLM/HArnqIWXpx6fmHbe31B5ayUXO3Hrl2qzbW1NRcdf7k5nmjnBc2ISflXb7v7shSzTti0+WOeLz10KLnZtGTUkTP/yzev2ejecbHO+/OurBrTcfRsvb9yy6tGTc5+YuVJqP++9GV25L3Joy3F/7jVPmv2yakn7qXPQnPPqYJCGbPH/nh6y/bg3mGLseskz4TQ6V72HTCPd9emWVT5SoEFAIKAYWAQkAh8PIi4Cwk0gN9i67Lb4knKMT7C5c7DpCxQ3BuXC/TdUrYB0fhRDGvQ7zm7KuNPo4+OPSuYa2iOA2+7kM8XH627VFr249l+UM0EcScMpqHA3M/O1NbE/9La0e8saX+/v07DY110Xi0+tD2QXpYZwE/5ojomBlvbLjQ/ujP1w/O3nKu45em/7xdU/v4r79Gf+lov3vpm8XjEIsQRAbR2ZuuVd+71361tul2U1tD/C9NTfGW2gd1DY13m6P3q2O1N/bNIGBUb17YeLvyfHOs9XE0/qi+tu5OQ5sMP6w6sKTIxdgxC87YeRd8oc9ve8M+vM1fNP/QXekUsDpbp4CUFwYXf3D0TpvpPV5fV3+vqb25uerjLzPQdRKcWHmuxfEzv9MAqeLx1qp9yx2TY8ynfnq99v79B3DVtcBBgC2xB/ftO/cf3Kn62mUZXlxx9s+xWPzQh0NSpEr56ZDG3dsOPWjpaKhvuFMPbuEP29obLu+cGMzA2LOh6+9svWw6ut+qrrlTD9VJp+vdrBF0NsTe+fJue0tLdfkwZqqFm0+Uujc1zNoZs7+qaXpinmR+u+ZO9e1a6xsHNw+8m8yEs4+ZTY3M0rNsdwf5vR8fqY0+bqhvuNvw0NzjqL3w2ZhAYhcPWFMWPcQs3aTrtUc/23H1UTQau3MfNixMKL5ZPCil9bN63+3NRCft3ANwlvjFDWOdO90NoPDCfVV3nB6SEqj6bpPzGmYfszsyWHT90Idz2o5u+POR1fHD68190j9/8Za7z/cpus4of3bkU1ASH55+2NbecnJdZ2dAOGOpRyAlT/VTIaAQUAgoBBQCCgGFQJcIeCwt+jRdd1dszsqSjHQds2BlZWWKEj7p5zOcDO/nBeu+B6p2fHGGU4JN8ZDx/v7ah9FodOcsa6OBctFvYGTCinNVbe3Vp0onM90gOuMU05Ezt5+tbnv096rzc4cHhgYjA/OK3l6w/Mumf8Rj97cvmFyQxxjnmIF2fUjFpbb2v/56uuPHPYuK9P7CGPQ/2ZDV3zy88+ff7pzb+W5xkDCW+y88EhoxVB+S6/ePXry9KfaXHw9vH1FQENJ1n9/P/SMibCTTwhZXJ2L89lst8Y76y/sWjMkn8JW4YPHMbd896IjGY4cWD3J6CaPcn//erqqOWCz+XSloazELztpd+7CtvfZ0WfFTHaVOCZv2JVieu73HJ6779vqdxhTtOiVs/LbqlnhH44X9c8dGKGGIBgbP2nL2DshzYEkG84psPL0HlZxtirXH71/7dPm0gmBiS8jdx0wCvLv6cTQarbp2edPckQy+eB8YMnvrT/eexOOtZ9YMS4kP1LGbvutTdwKS6XTdnXM2NYJ2GQeO6/Gb+yZRpg1e+1PTk5b6kzOSma0mCtd939Eab7uxf80bEYv00pFzdl2Gjn1p4zin3OxjOknMgEeNsm93k663tLRUX7+yY8FwRhlmwdEf7bvV+Dgeb/12ZWKfpVs9xNKu37v93d5VZvVJ0cR1R6EJ4lc/fzPZ4Tyb9z2l7oxy066h+pOp6Y+yvRNedUZuIqSYYJg/W699kZAz+5hp2wqdCwN0/bfjq1q++mDPlLBpdDBh6uy6Y+W/nlh3cXZi6OtrdP05IJ+MEl/6PZxEcGxlZ1g5g6RHoLO06r5CQCGgEFAIKAQUAgqBzhDwWFq89HQd0cCaNWtNJXzDvtVPjq//9cS61l2rHbV89ifD07Q/v8gvP/O4ra3tyEJuPswIsXnc1K0v55gG81iQ/v1GfHT2t5a29jNrhmoDcwb5mS6ojyzcUPfvLX++9/HYwb7+wTxC8vIH+hEuWnrhl/bfWg989MbrWjDAqQjk0sig9T/H2n5tvluxMJ+wIj0XhX0iouFVp5ofNrSdLy3uTwLCr4scJhijEY4Hvvt5S/QvsQsb3hBGAaWG5ucsQALFiFOz+TGZ+mlNRzRes2VCkjFnYcnZ5nhH07drgraC3axjaMae282/RB/8uHgo06d+eTPW3lx/uWRUhq8xZcQk5SYhEz+9Dsr5w4sS3uOYBRcfhrOd3Mbw5lHnTbF7WyYmlVVY8kNLvKP5RGm64isbckv4yI/232uOP4Limpounj7+cfmydGtwkzQ+bGu/UPGmuwqjK689bGtvPLYm3YL6BdL1gjUXW+IdtfsXww6LGLvl5yetLQ2fvJtk8E/ppM9v/tIcv791UpINbf6E+cuWLV80NXGqVvYx3cgwyj3oerfafXc1eDdcrhzvOJ4gGpizF/wIGg5+mLgpD8PPsoeYdD1267Bj/AKbMkNKf2p60hy/XJL8dTFNFJafATOEIwuTsEqpb8rPyZ/cedjWXvPZ9JT7L89PqV0/VX5nab4DMiVs8RrYIf3rxuHOzb5G158v8lpw2NrjzbFY/ERJp19t8JhKnUcvT7t3o5OrSikEFAIKAYWAQkAh0KMIOAuJ9EBfo+tJTNIt7vsrV//z2IaGpUPcN1PCODTx6tGK344uXNn989VSsjJ/YjKk9MeOWOvjg4uSvLvNp5QygfyGb4Axfuv99vaWxpNvCR9jOmGcjVv3Q8v/+bD+3MqJ+dSHDE3QgKHpy/a2NbT95cLg/n/grJDpYRrQKRuRP2n/pZsP/1G1czJCnAG79hOjaP3FWPtfms6uGqVTGtIxDWk834ff/epqfW3LzxWTQ4IbjBuY6ZQJwUTunK8bW35pPrd+MGUhOGeewRfXRQBTZtVFX3ECLMaPz0v2wMQTP7sR74je+GycTdftuoenfwUm8bf3V2y52BaNx75fO8p89BT/MZn/dWNHNH61fEQSkkPXX4m1Pm4+8qGTJ+6mnHB+/pyDdfGO6IVNxclVcPI0A5gWTVi8bf+Pd2tj0KbgCNB052DJBOFKhcm7n9/piMbrP5+eJCeZf6ShkyIwmbO3riMav7Z+eHIS2wchRYxpX9bGWh9f2zEl5b77ZzY1wiS46Gg8Gn90qqTITPvenoZY6+OLm8YlZUWGrD3bEY3Hv107krpq6o5jhnHWMVPSetSoG+1uId+4c0YSjPmrf4SWOrPOOWGhWz1kcNmFWOvjllOrdFfdMXlv5z3Yuto8Iaks7/c9pdbOz8mf3I21Pq7+/F3nzssVwGTogb0Vvx0tPTguCY3C9xf989iG3zZPjNjQYTLi+IGK344u3zEkKSafNh9ibpmUb8d0ELCTLNtWlJTEieAEso/pJHl25PG7n1+uvnuz+u7Nmtp7Dc3VV37ctXZaJHmEdIp75QK66X2m/isEFAIKgV5HoNPV/is30qqa9h4CPcqleyFzj86v6LpXN+pi+U4YgcPbI3TI3F3X2lqar2+fFiGEMWqgxYdqo60NP5UWIq4j3Y8CWjiCwmt/fNz8JP74xvVbVXdqb9x4cO3S/WtVD649qLv15En81pdv5f0bQgQjihEbvP6n2KMnTXuX+IF464YIElaYR4o/+urs8e8OlrxVEMLBAAnoNEBZ0M9C/kXHapufNPy4rhBhA3OEg4gwTP2YWBXE+aWn4x3RWOy2uTx1/tc0N8Y7ojW7JqcvtYMzd1Y/isYetcQ76n5YP+wZVrGYLDzQ0hGNXy5NXuhHVp1NpetPIWd2dN15DXj+2GkfVHxyvLoWAKnfN6/QeWTT9bvbJiWxCzzrG4h8eevwdJReFF2n7+8GR4aqytGWqMbS75riHS1nylJY06Cl3z6Id0TjbfduXj3z7Yk9Oz/fULps+pginlaX7GM6iBEqPOl61u1u0fVU5PnSbyVdL0uQxu70EJOuNx5c7BYYk7Er9585+e3BpcmbR128753svzw7aXTL1vthm66v+ioZjXQSbjPqV4iuy6HD2ryLtty8dObTDye4d3Z6vzl6sURF1xUCCgGFwItCwGvt3YvDoBLjlUKgFxh1jxbh0fMVXffqqZgMXnu2U+06wUwzivIKxvn1Ie8fiLVEo9c3jNYQ8bOxSw7ciDW1nCh5ixOBkeHTglqwAIfKTsfhiLn//Ov/XtvQGmvqeBL9S8fDvz168uv9J4037uyYOb4A+QnGnFJ9SMW5aPtjoOsY1OOCG4Tn+9kQUjzJhwaK1//XABI60QXVKdUx1dHio3UtvzT9VFaEsIG4hgwNU41omOpm85t03VyYpv/PTNeJ8fYXoDmMxttOrLBUuB6dyeNRd+l6uoTWkjrjtkI36boFCAmOq7zcGO9oubJtpE1cXya6PuHT6/GO6N190xzhh278Kd4RbT65QE/eayDhcct3Hbt0v7blkQNsNN56/fDaMU8b093WL4SuOxVJCaT05Ix03S28O9zF++5J16s+n+7O6iUKv+x0/bkgj2kwf+Ts7efj0XjTgQ8SB3m8RO3YfVFf1DJdlasQUAgoBLzW3t0fzVRuCgFAoEe5dC9k7tHzFV336uKYhFd8B3T9VEmGBRyowVkIGYN9RmDI/H23Hv5H/PqecUwfyOefaXj8S339+gjNYSIXBfJ8IS0wiITWfxu7Xx/dMZG/hkk+9wcC8JhTH8+jwX7B/BxqaHmUYJ2LUPGGC9GHHU17F2uEY8oZE5hHNDGE6hEREIIxXSMCMy57J6UMLzlSH/tz809lxRoOIOZHuh906wj0/5JmWNr1xsOzbXbn0S3MR3zC9sstHdG65vuxjujdo7Pzk0hgl8ndEbphFG3qTrsjZzam425hnDDWlxxq6YjGziw1rKq9RHS9uPxSClM1f0bjDSn25In68nDhiMlTZy9ZsWHvD3fbo/G2H9ePcZ66AzjrmF1p17N2guiudj27HtJNuu71vrvxcYdn7m2KtT6+snWi+2a3wji4ZJ9j7ZIeOF05yn5ns4+ZvQAvL11/duRTUDJWnAFjn6PLiA14SoRX66ciDAoBhYBC4EUh4LX2frVGWlXT3kOgFxh1jxbh0fMVXe+iG805EIO1+JYJ6SBiRAlmjHCf4e/PZh5t+L/q2qorR6OCOXurYk9uH94xgWE/0zVqgGl6QEdi8dcN8Y7494tGMMaCBAWwT399YP+BfEDBGwbXB/zbv+ZpiGGiUx4aUnE+2vaoae9iRIGuY8owNRALExagXDDCGYKzsxn8YAYnefP21cf/Gju3YbgmiNAx1hFhiBHs0HXTJzz23aJkhWp6vcw7WJ+8+crDaPzhTxumzj/YGGt9XHNwkWOQ3Fmqzu5jMmVHNRxBf/CDiBMHk/xFR1tSjeG7KWc2vut4xidnL/x8bn+J+3t1kJDM2QNu5z+XDUuh6535rlemu8e/EN91TMIfnnwYa3187/rFH3684FwXa+LQXbdNckDuLKAvPAYO/y6f8KeO6aldz7rds6fr3ekh3aLrhAqP9z0jPpiEl38LNgunS72O1ciY1rmJQ2u+jVvnKaRvwURvfu6cK5F9TCfzLgPdoevDDn1d8dvRVbtHJu3cFc1aDL7rlRnMyG37+efvu/5ckE8Bhy/9DoyJvlvz+7CHf1HLdFWuQkAhoBDoYu2dMjirnwqBbBDoUS7dC5l71FHR9S6GjCLzqKofKwrT9C2cGQyU2xTpNI+/+eHu1pro30+tHz9pV220/ZfvV47un6tRbpgXMnw+NPWTu3/797a6Te8OFlxHxBiIgq/hNwomLN+4qXLzyglBrRAxjpiOWWjw+vMtre1NexdjJhBlGiGIUIQZwhxjgTEH/Q9hlABXj+i438wvGtr+1np+0xgUzg0HOTYYF8SgyKHr1snwtV++F3J3CGPyysrN2yuXTkk+cS04Ydv1pnhH05Ud4wXHQ0pOAq2t/2ZBpybxwxYdvPggVlt9Zt2koDt/M4yJ/t7uOjj0q/rE8olF8Bk5OmjS6pOXauE78ElHzXVHTitz07H80pZhaW1kRTDtxhvPLB2URDPElJ1gT950fJ69hWFq12Otj89vTFI7j950I9b6uOn4CjdKdtXMc8uqKsckZW4+Tf/vQW6dyJarvEeN6PyvoUVqtiQflhb8ENzXoz9tHGRDgfnMyhOnj538Yk5hknh4+p478Y7oz9sTjgBZx3TkNAMeNepOu5uH/GXhu96dHtJduu7xvqfU2vyJ9YUHGjqi8dpP3k6CN2PkvnmzO3Q9svXjit+Orq+a4950M5aWlf7z2Ib4ymHpFcRk2MF9Fb8dXfFpcRf4ZB+z55A3LVbqvlmYXpFX8Y4iDAoBhYBC4EUh0MXa+1UcclWVexyBXmDUPVqER7dXdL2L3oOHV56PdURjNyvHpcY0AhEhdDjKncOBcwXzDlx71FD/w85vqv7xqPZc6XhBNT8RAcI4JQiOe6fDZ2394XbLo1/unls0Rh9dIHyIv71o866r/1H34FQlStYAACAASURBVOez5ZPGFBdwESZE9/tJUdnZWFtH9JvlPFRARQATKi+GLbouCLEuH+UDGaPjVl1s+e3Bhf3L3wgNKWC5eX6Bi3Eeork+s/kxERM+rmmJdzRVnyx5azCF764bgyat/uZmWzT+6HKy+QCftAPM4GM126ZYtvRDS86CMvbe8XnJjNfOfPrnty31YNOJlRl1U3joyuMPIE40/qi+tu5e06NotOaL3WlHzXVHTqv04ZsuAuu+UDoqw06B1KJP2Hy1HXTRP+2cP7ZQfnPeKJxadrAKFNR3Diw0HHJr6Xjrbl29uG3WCG59nX7HD8CN275fMzT9XcJk8JofHkXjbee2TnHySY/m3PEgt04c3GWNpuysjndEH+yfnnz+Hx5ScRbO//9+cdBiR5i8/Ql8wO/h5S8XFtu7EmTQ22XfgcVE3ZEPnQ2I7GM6cpoB7xpl3e7Z0/Vu9OTu0nWP9z2l1ubPQctPw3txZ9+05/Q1ioyl9OjN7Ok6oWLknCW/Hq34bf+Sz8ZF4O2gwSkz57UcAZX7vtGpI6R89UIbt1b8drS8ZvEQ51ORGauDSbYxew75STtux1ofV306NaOEr9zNF7VMV+UqBBQCCoEM88UrN8aqOvY2Aj3KpXshc49XoO/SdayPOblrVbN9xQ+s/+exDb9+s8a507x+wmCbZZk1fO4fcpPLzcFLT4AGuPaHjaMctiO9wZkIMq4zCufDIxbSxyz+vKq1vrH5du1fmk+XjNb+WEB9WA8RiikawKmm63pucGH59/eut/zS/jDW1hprjUUfxh89av3bravfDKf4v+KckDGYIpE3YGBR6fdt7U/ajqwOFA3nwXxCKSYMA3vkmAg4753o5vUa1v8XrGvkzbLTD+49+b8b69se1DXdqbtff6/+3JkVQwlxmh8b0zZdiJqEuaG2rqY23ixNcGsvfvKWze6gyvqUrT8Dh7/++QwXlxu59gfwC7h9eEnKweMSJdAwm3a8zadWdcZaxahF245eraprbWxqqrp0asvckYVrzqVo1yG37ORM1IsMW/EttFE0Fr9/v/6OeZ3bMtrVPfQJG0/XgtFyNP6oobbudh0Q9Vjr44Zr+953bUDYvuu3vth88m68o7EOYrZIlBqufDopuQM4AoRnH6yBo9fb6+7fh49Cyeval/OtbpnsmVxTBxsHTXW1TsybR9Y4ynArSVc1Gl55Ldb6uP7wUqeB7IQTNl/riMab98xKjJJDl5++K6vQ0txcU3O3qqa+Lir3TRqvVkywtmPM5FnGTPGg7rJG2bS7jXzX2vVu9ZBu03XS6ftuQuT+j4sWHrgNWyEXKjM4y7hj9uVwt+g65kWbtoAu/bejFb/uX/PoIAzLvx0tu/vhsJDrdXPXNzJpdgy+r7n+z1+vdkbvhpUZvgqZfcweQn72fhgef6oY6Zb/1Q0rwqAQUAgoBF4UAoklyqs7xqo69jYCvcCoe7QIj3ehD9N1Y8KVoxX/PLahs+u3j99KcSTuCboO3GD42u9Aufro5tF148MJk04kv5EGh8BRw0+DiOfPOf5LvO0v9a23vtv/YSHJMcB0XWBKCNEoo0zo/+V/Bn35Yxdv3nvoZvTK/WhLNHr528PflC8tZv8tn/HXCaG8ABHD58cz1++Lt3Wc3rlehAqZHqDw+XQmDeAdrm4QYhASyKPidUb/9U9YHz1jw76fTt/99U7s70/+9vdHjxru3N02liWZvmNjzNxNh05fra1taauvrb168cznpe8nlK7gzh2ctP0mfA+s5uvpLg4PfWjUxrPNHdF4w8FFqW66mIjhSw9fro3V3jq7fkrYo8OlPBq0Fuh60+GlKfe7lDM1fv6Ukt3nfr4TbbJ9gN0ev2ZkOuS91V+c+vFmfW3Lw6bm5pqr57/eumxMKNGgct/B1PHWbJ6QP2HFnlNXax80P6y7V/PdnvLJycbkbgEwMYbP23Hk4u27jUDFrW0L+2Py3v7GsINwfmPKxhNI0nmNMClc+X17NP7ou9WD3WKY4WlfgdPBjU8SGkJMjOIZ67/67ur1280NsY6Wltjt6qoz32ybMyq1pbKM+XQ1coua3u7douuSsXfRk83iukvXPd53t/yECj5s/ueXYAOr8eqnEzvZx0lJ0jd/douuAz48f+HC2Vc/X/3kcPnfDq5t2D7vy6lFHppzTMSoydN+3FHSLrm9OZ7/ff3YdDSyjNlzyC8+BttYP5RlMKJJl/blv/OilumqXIWAQkAh0NtE7uUfsRViXSPQo1y6FzL36KV9l657CN37j8Lvfn6xEVZyjTUXd1cuGS15LEYYvMetzzvp/f7lDxQzSg1Cg+CvLjhhFMvT6DDjmOtYGDoPhlnYEAY1uEZJrqZphFEepDzAuKGxQC4J+mhQYwGN6BqGQ+YoE4xxxhilnErLZ1u1HiAkSEiIcS4MxBgjKMCQ0DGlVEc8TKjBMKc4iY72PnTeJZrWp3f3zPGO1mtPbdJ4Z+vEPo1brwHSQwX1tXZPqWbG9z0RZ+j7pZ99e6UOBoSmW0cXDu16Ckmk7eRrcCpCVgj0MPJTd9aCxc3FndOKkqxOspLt5WtZRRgUAgoBhcCLQkDNmwqB549ALzDqHi3CY7Gh6Hq23UUfvezzH+saweb51qaxwOWoP48iTOWn1DhlXPPxnH6CUMoMAip3al/MouvcoETnmqBEYCHgVDk4751TKiTn1xE1fDTgI4YfC/hMG+i6OSagV6dwcWI6Kltm8KBaJyTIgK9jQhnSBEGCgam8rhGDMF3AGfLZVtCjl/TEI0xE/lubvgezhfjhJYU9UcRT5GnT9VST7KfISiXJiEDfbPd0UdPfdyeOvvy09LxovnJww+Rn+Lqhk6EKZIlATyOPR5Z+L3dhotHY3Zq7l3bMzFKwlzPai1qmq3IVAgoBhUAfXZq+nIO5AtNCoEe5dC9k7tH9FF3vRi/HJDh0eknlVzsXye9+weFvoF3njDKg1AhTvx/YuxCYMg1hRChYsFNOmCBMJ0xHGvXnaH6NaXA6ncH1AGOcYkIwxYQjAl9982Ph0xginDIdE6ZpBGM4zs7i6qDDMQd6g4AmPwDqd04xFM4QEgS+G6f7EKjlAwFDQJxu1LFHI+OZO3+2Xbur7sVMw/XaHyvH9JljuhRd74kO0PfbPWOtU953J46YuWnv9rLZY+DMQuemCvQCAr2AvBj2ftnes5eq6mpbOmr3W8dP9ELVXkQRijAoBBQCCoEXhUBfWZe+iLFX1b2nEOgFRt2jRXj0RkXXn6HTMINSHWzUweqdEFCD61jyZ0I5xnAynAt6GBMx5kgDZg6fQ+c645CcgHe7PEaOCkx1RAR8rY2A1h04POQjOb+pWk/QdXOQNSgTlMF33RCCU+igFAKZgHut0Clw+2eo43NNi+cdbrR9y1ui8XvVVw7u+HCU4UbpBYuq6HpP9Ja+3+49UWuVp0KgbyPwopbpqlyFgEJAIfCCF3t9e3BW4DwlAj3KpXshc49uqej6U/YJwBQ+aa6DKbv8/rn8ljgcO2ceCAfW8nABYZacGUZn6yfTGTMog7Tyo2LmR9Slgb2VyiUVGLdbB8LLhkwd5U1b+pT/UgMPh9Ilbxm4sn2uPNyjh6lHCgGFgEJAIdD3EEidSmy7LXVfIaAQUAj0NAJqOaoQeP4I9AKj7tEiPNYJiq4/S3cxhzOROAROqseBIdt6dTdXNxdDcIfJy9R7Syruip8sj8zKm647rWsfemflIF3f5THyipkrBBQCCgGFgEIgCYGeXo6r/BUCCgGFQGcIJK91k4Ym9Ugh8JQI9CiX7oXMHUKXHlB0/Sn7BHzQyGVnblJlmyGDMtzE2tGrpyguEjbqyXQ90ULwZXVTqW6p1rE1nKWPfRmqYH6b3fpCuxoHFQIKAYWAQkAhkIRA+lSi7igEFAIKgd5BIMPCNbEAThqpVEyFQLYI9AKj7tEiPF4BRdez7QTpIAIZhjEFzpCD0+DBcd2yP5cKdjNnc+BzwmnFmfbqNr1PlJLC1a2ynHzc42lSnqYBvKOQl97sSRESRagBUSGgEFAIKAR+pwi4JxEVVggoBBQCvYmAWpcqBJ4/Aj3KpXshcw+Cpuj603cXmwnLAY7BfzddT3pq6eGTT32Tp8F1pgC3+XZCtW5r152T4d0Da6IWZkKEOQLCb24oJJ56dAX1SCGgEFAIKAR+nwjA5JX19RQQpWSenIN7LksKp6Ry/0zOIZs5Lnn+7WSPxinCmtAlJh5luePb0ZwqZCNVepys5LTLMtcD6Zl43Oks/8R9V6UyrjesCjrR3IEUQ8Lknx5SpT9KyOOqbFJ9nXJlBAf21IATLZuAFDhdGI87ncnpkSTjo6zy6bIKyYCnQtGtp1mU1VlFUstNyar7IGcsSN1UCKQi0AuMukeLSB7rkmqn6HoSHB5IpT+y+bMcmLzoujPBpA7HJp2280lIAkOb64S5tGjOUJhI4ohnJpRcXdH1DPg4QKmAQkAhoBBQCLgRSFlVd/bTnaRbYSdDO5Uzl2UOOPHTA3YO1iDvREi57/qZOv+6HqXOFKbdXPrU3FkSM7586q5IaradJU++3w057RK7VZA7/wzhNCTdNUoKOzHdgawJYZcyZ5DNXV+nUBu9JNncYjgxswl0n0m65eyyUh4RupGPR0XcFX/GsGcp3hVJbYuUrLoPskdx6pFCIIFAj3LpXsjcHs0SNXLu9BW6XjxsVPGwUY5YL0UgTX/uaNfdB7yZw5YJfTeHY2DsCY2HC5OUoTCpXWFYNBPaaV0Jk2Kq+woBhYBCQCHwO0cgZSWdzc+nQ8ydsyuHlOks6ac7SUrYyaGz+04EO9C9+dfUrttpu5g6bbpuCy+377NMmxatG3LKtM8e38zBygfwTFo82JUCI8GkKwV582dKnEw/uwDTBiS9Xs9TzozC2+2YpYRmtHQ5u5U8xX6h07SdCZxyPxPgSa2WfYSUnDv7abeXI3mG4qy0iX717KA5xamAQiCBQC8w6h4tIu1tSlRN0fUEFh4weT5KjE0wJCXGo/ScuzFCpYyM8mQ7x7LdK5+UYTF7/YBnHdProu4oBBQCCgGFwCuCQMqM4/3zKSYLd4au5NbsaX0wJZkNSl6R2LB25+Ce1zq77yrFbCOveTMtsmMTl3372isB+eUXU/hM2ZoZckLNKz3/XpDTqZ0ts4U8COPe7pfyp8RJ/ExB3vyZPRvsHBwTExMH53+iXDPhM8qZUfg+QNe7aP3OxHbudwd/N6QZwk6enQU6acHOs7JVUF29HekvhbqjEMgKgR7l0r2QeSfvFNT9RdJ1d82HDRs+bNhw952+HybS+dw1OMqFBdzMMFq90JtZ9XKPXqIeKQQUAgoBhcArhQB8fAQui/Zk7bjupsrZA5Ky4rcTdjFXpqRy/zRzcN8xw2alEv8TPuouImTN3RYCtjApE6UrfiITmcT9MxG262LSdVCwywwtnOXnXa2PvDpc3Qm4i7YTJnJ2P00PP0t8U2ZYtDhfq5H9we1JZ9crbWGTDr5NdztN4loIpVck5Y67Xs9fzozC2/KnSOL90y2nd0yPpw5iaXHsvgoC29qgzoS35Xdye6aARynWIzl6pL1ryYUmOYpaVZDdIK2m2XZ4lVAh0CkCfZ85ekvYyWQE9VV0nXtj5/HUBas5PCm63ukr5MJKxVEIKAQUAgqBF42ATdctxt7DdN0xEDMX+vaMkLyyz44QunNIZxQJ8uBU0KIBNq2y+U9SzAxUwY7vfpSap7sRZV0kV6eWgl0+hSQ2V7c06g5LdwIp+bh/dhnOJKdb5tSwE99at5hcndr7C/Yxt25rvszNlA5+d+hi9vXqETkzCm/L36Vs7ggOnu6b3Qq74U1OmNzfOpPZfd+1IeLO9mnC7mw7Cye9RNablVyWouupL2ByE6unzxUBD8r2UjyyZ8YMnUTR9edC1y1kYUSDASt5tHrxPzM0vEefUI8UAgoBhYBC4BVHwGYCCaNiy1SVY+pxOSyue9NKcp5OWhfVybTWN6fUjEpFs3XSWUQqf3DIOUzETrm2Xt0h0oloTpzk+NRMYhPvzPHNr7rCh12BsZvFJYpw0poBZtvDp5D2tHJlPlZu7ipY4WeJD2sVyxMhla5zyV291jPp4GPKpZY+myWQhXN29XrecnZuVNKZ4jc7OZ3O062AG67khK7Ok/qeOlVIDnR3/enRXhnbN/Ei2+UmvXHQJ13VYfBGOF9Ncn2uKHOnTXpDM3T1ZHBUBIVAGgIvBSf3ENLjFVB0/Vnouj3iyJnbWlJA2DVa9YmwGuMUAgoBhYBCQCHgQsCm6wl7eHP97cXVTRrvyoQKwpJ/pq2fTFKaWOVD/k4S1xxqypM8Yz4fuu7k7KqyzTEcCp1u5W7LZkprpfWOr5t6dcZNui5zcDEuW83OCJFXsrKdUiE5YXK5snTzUSeM8SniJ5YoDld39hds7brTTInIKWubjHQOMrSvlPjun06N7Fo7XcIJJJX7nOW0qWZ6FaSQjgxWwJE202I6A/6ZoqXm6YqTVFPXfZddhuxF2TB2N8hdhr1bKh2cpLdYfirYfo/s/S/ornZ1JFenzFB0PalNE6OfR5dQj54SAQ8m/FI88ugqiq4/A10nOgxV5rtnL1lsYyp7wHJGrhcZsIVUw4RCQCGgEFAIKARM03cgLZxg87LdSklCtY6SqHsXenVzce+sNhyGIwOmAlkW4fjfMo4Zd9g+JTqjBmcBxgKUGpTCKt/98XM3jTQJfyY6ISjMy/blnnaJSZ5hNoSs7KoBhU479Q1ylozOqQ4EgJ9wTJgrufSAs/0IZGSLrGLMNY1izJwcnBIxlZw/mavbMridxt0TtwUgkZTepRFNCCAldCfJIgx1h2jQRvYahljImMm9VjIu/K19HGgXO09oPmaYylWbwlki2V/VSZaQya0fW4xEd4KNkmeS06xjguta7ZX0KR9L3QLbTy767SzwUkYMW0incc1OZW3HpERONHSisVw7VskgmOBbPQ36m90/neaAgIW8+SpJFZFTOxtq2XDQ591XSllArZ2+hKmOiY6t+FZMV0HQxE4vlQHTmDQ9T+HkCfhIrFxdBYSXUmVI6MZThRUCT4HAS8HJPYT0qLKi68+DrjNBeGLZkTw+usfKFxVWw6JCQCGgEFAIKAQSCMACmnCMOUGcaJKxW6ZhDFOGKUeuy1xtZ1pJ2DwcKISOqLXcp1RnVCQuZuqNQQVn8yLg6pgxYOxAF3VKDM6ChggLFmIkQGmASMaOGazvEeGIMISZtKeVil8GZcEjuOCOSYEgLTHgSiIq1uQro3FZQbOa8N8mIZaQwKuhOEmWJLWQWQngscDV5SUhshm4RZ8AH6mEp0RofpKbq2kaNQ3jXfsOpqhu5mM2inXH5F0W1MBg4b4syJRTmAp8cDWXxNKsuNxHMHcTkmmVSSzd9NJSLMvIGLYeTEJobq8AuTILtQJeixaraEs8uwkItdg10wk3XIzdbn0iMLZEdZC3y9WT2J3DWpPltCNLcLKQ02wXGyLZRmbfIDqgjU15rJ6ZoOuOWYRJU62C7D0FF6SyyUw8beMLm6ZS8A6Ay6ypjZjsq46th0nvIUO7ZxKK4bK6qMmNLfsCm06bWcmqyc0pKrVHRHYPu3bWvlXSi5AYAaw+Jns4EHWiI/lfMnarmmYpyNzXk7Vw6mKiamfi9GdBCWyZ0cROh9xqcZrJNo+3E2aUR91UCDwlAh5M+KV45PFeKLr+DHQdy/FRcnUquIuxe81wL4LMP2W/9+g36pFCQCGgEFAIvLwIAMU16brGiJ8BaZd0nRJGgIsyRJkG/4G3y1V7QuvoaM4tdaJkgIjqGjWQ5AaSrluMnTPBGVB3sOU2WYEk2IgxxCmiFHg4oRqhlOqChQQNcRKUjB3IHmY6EHLCNcw0TC3GLjW3QNcZ0HXNFpIQway0oKKXhN/+TyyjXFkjqB2S1XToOmWWhhm2KgjT5NaAuZXAmCEN0YGuI0LhkskRM8GxmCoojQmnIIOuYZKj+TRCGQ+APTAz5HYGSJsgWiZPs6idScsZwg5vlPIAXZe0jVApKvAxkCeJrpvsl2GgteZugsnwzT0RAVseDr2U1AtjDkgi0P9jsMyXlBKMHaTigQvCTcLmvZgBhikvaysBXgdMCKHAPJmOeQAnFOySrkO5HCH4b/JnSG4WCkspoOvmBg2gBP0TKuWW047PQcLs5TRV9Nik06Z2V/YHc+8Awb6VuZFkygAVMUt3jCmkMYiJpPPffP2tjQDMMAJpre0P2Z0cum6yXHN3SVZN7hpg+R/eOwBB7iLJ3kUIgotiajY6l53TbHfZ9IleBA0krVEs4xEGhyZInbljY5KkY4fVYIp1g5QHuLqGDWDs8HKZfU/21cTWFXQSRpm9AWFufFjCm/tKMDI4dN004JcbW7DDAo2lS3itnaaXd/BUkvdZBF4KTu4hpAewiq4/A11HJl3nRHBqMCIcBbv3DNf7TxVdVwgoBBQCLx4BTERw2PihIcu01WNmUo96GgGgmoRjJLm6jxGNUyxVc8l0XTJhqQy0dXS2v6u5LudU8hlEhEZ0P9B1oMeU6ty8mBDy4qBgBzUgJgYioA/XGNU49lPsR9iHUS71I1jyBzkJCRxmJAgKdmZgbtJ14OoaIiaLlowCqCBiOmI2XZdUmZMQp0FGITlotqVdvWNdL/kS06jcJoD/pnadEQaMiEkrAJuuwz6Ci67rBGg81QjRCJU5MMBQXiYDN7c/KBECcCADaZ7GKBdBymVFzH0HaYaQYnIsVcqWCh1hAcpM4PCcgtUesDi5qUHMnQXKdM4DFmOH3CChZXoA2xmOVlZmCCQzja5joMEIAZ6SCUMSkzFSzikXVAj4z8EV31PBYNJ1RphD13WCECEEpGI6FgEs6w6ZEEGgXI4Q0zSmIbCVkApk2yeCCyJ0wh26Lm0ZpJxIS5WTJMuZbHKfLrM0pwe/D8mlgR4blAUIMQgWGHGsMYuuA6s05H6B3CmwtzNkdey9Dy6wKaS0+7B8K0yuLuOn0HW5NAeKK5XnAskNJiDMWFAM/834sqEppgQRDNUlGBg7JZhSu3MadrtbG09yiACuzuQbJ1tKcGaYjD3hEpKBrsNeiTPCSOsVXcO6HxuaQ9etvgejhCb3VgiYCTD4s0wGbJt2c5eHy5dI0nWGpXbd8hyROw6ME65TYcAFmzKJvT9HDBX4vSMweOyoQuMZQfBgwi/FI4/qK7r+DHSdwGjLMacw8DHKOJPmTOZYhuXEz7BghFGC4bxUJhAL5tACxMKCB81Nd3PH3XJmg5gwNsuR3RwK7YlHDrimNRSDzXXTzhAGSCr3xe1DaGAUBs0AKAFMFzt7SIWNfJgw5M6o9FWDLVjbRjGxza+G0RfPajzeWPVIIfAyIoBJeNS8Ld9cqGuM39o0NrFSfBnr8mrIzLiRR/lrmOZJpZ7OjKAe4SykCZgyBAoQrGuEJ9P15LHRshZmnAcMI0J5UKO6Bj7bDKziRQB4ht/PMHEmGtvmlgP3JthP0J9y+vcnWkHRMJ0U8QH9fFzH1ADtOpXqcQb6c0ICDIURMXIZxUAlgZ+YVtage2dCs7TcoO4zgBnyXEx9QKoZpUKnAW47w0tezR29umkVb86MJikCTiUV1BbvNS0O5HFZpq2yW7sO9vySLVtdAvTJxp8G+l7z44KikUHxhjGwnya18dhSyJum+5aCPdmBOUHXLTUv2A87SldAUToPm8bwbu26TChllsp/mPptmwiHsUMAqmkqPE26DtsfFr2X2nVQp4MWF4i6vOBnwrc5E2+3FhUmXTf3LPwaI0ToQod9ChHRiJ7rRxgzXdJIsIYgwNhBx27auksAoZVtbbnFlmVDILkBAeRVbkNIZmubo0shIRUAlYWc5vF+oGaXfhbmToRpDC+166Z1CYYeKDdBSLK1gr3rAeIl9hSgy6VZAZjm31JHDUssc5EpONUFNXQaQJwP1InGdEHCDMOLBv3H9A2B/SOKCdgoyBZ3a9cNONbBNKxwFmymI4nlgg7MX64PpYI9Wbtu+4ZI2w3L0cO0jDBV6FK7TgzKg7oRoUJHDLalfIj7MfMTpnEDG2HCA5RyjLjmYxQZOg0xbmCdY9hnCRAawDgA1i6CEnj3OcWwNrasJ0y6bu4BKbruasFXY0J59lroy09Ho81XTu78cPJg603vPkovBSf3ENIDRkXXn4GuU84R1/2c+8H3D9TrMBKxAOacWrZnQNfBnCvPoDgCI2DBn+gbfj4oqIcMEeTSTE76+8H0QIB7ywtmVhddl8MuuAPJQdmcQW1+bhtTWX5QllGc5OrSLS2Rj73BLFUQ0rlIT3YxMpdiiq4nL0m7P154vG/qkUKg9xHg48tOVDXXPbj+1YKhvV86aJ/0CSsO1jTEO2KtjxsfnFk+TNH1Fz/I6CLYn4l/IaQ/TF00ZIQHhYt1np8bMCgNhXz5HAU10Jlb9tvunmPzTIv+BfRwQWSIbkQ0xn2I5uUhHxX+YJhgzAf2I34/qNOdE+aojjD1a8ivaX7N3x/7CiaOWnti88qL5RNm5L1m0DwuLK4ORrlA1xmOGP4hiIYHGJwII8JChuQtoKOTEZBFm2E2DDGqEfRvmq8f9ueCFpyHSEgHZ3h7anN8kk3SArvt9mVanpvUN4kfmufeATt1PIrdVF/uR+hEBLAR/jdMyfARq49tK7+55Z0ZeTlark/LQ8gH+lLTC8A+FMA0ojYpNJhem8RVehYAY7TcfW3ZLB97eRaaZWFusWWZ0PJzlqr4lHMHrJydgqSWmyFMwblAbutbxwfIA+dMpwD7fxY0GAy54bADWR2R4zMoDUQCwYAR4XqhD/HXBw5ECIf0gNANrEODmhW3/kOt7cpK7m1tgpibJgQ2FGDrxHRfB1or/dtNcCyunuW2AgNtCOzmhAkYbsh30Fw4JYzSTd2+RMyh61JC0IonGLvUtMv2sui6jOzIKY0jQNdiblRR2GPSAyQQIqF8EtZ0/q9hn083hnJGagAAIABJREFUArSI4whGBmxjwW6F9AuAhk65LP4vubp5KEPKAGL3bSrN5qUaBooGH3J73WhZx7jAd7q9bfGBqaEbkfzIYG4EfEzLxWSgj+Ui5iPUr4e1yBCsRyjRtTye148yXyDCCoUR1EIMGwblEUwimhbJY2JgUMOEGLmca5yCkYi01OA6lV9MsE0hUqqgfv7eEeCz9lQ1Poq1Po7G6k5VvhdxGYC4Zx/vsAcTfikeedRO0fVnoOsM9g6ZjxNEESFiyLjtH7y1Y0ZxPhI6EYjDu8dgGiCI+AnROR20e9vqvxyt+GTGUEGDsN8PO/fCRdeBscMl6bpFzs0BNzHsJk7dlAftyON25ARvTcbWQE/liG/TfiD8CbouwzCOS3MpSfitDYJXdrx4d1d9rPVxxuvbVUXmG4IXHmuWjMKJFo1fWz88A7XIPqbHu9cLj55CTqyPmbvp4PdXa+83P6yvrb1y5lDlgnF6J+MmHrWoctsnm1fNCHcS4Snq+BzzxCS0/FugiBmvaOPh2c9P7Keo6bMk6RZKYzbfNBFoOVnCe73KmI5afrKuJd4Rra/aUzItX2R6oabOXV29pax6+fgIx66wGyJMRs28sqX81tayq4tHBROZ4Onz1lRvKTs4pbNe6s7kWcLFWyvKb23NeM1fEnqWnHsiLR4+9q3y96YsGS46aXHGee6/styIGLf2vXmnSpecX73yxooFh2aMHZtfXOQLagYD7TrQbNPd2qQ3pgbV/m8xScZ1IYLFK2eVVlesrSpbW7V2ZdXa9c3bV59dMmVUYchgGtNB8W7aeIPrLMPIUh6ywYMKy5aW3thTcq18z/ElAwO6X9fBmleyMqB2THAcCmiD8oa9OWnde5MWjATCAVpES8Ms45j0CfSEjGJ/fnHR9kXzzq9bV1c679O3iA8TxOR8Ks3KwLdW2sS5eTtQL5vxSqIoDactCzWX7bpDnqXa0PbjlYfq6ZgZfh7ERcX5az9aW7235E7Z18cXa0iAxwHU11J6W87z5qaAlAEM9ExVM5B2W/du0fWEWZzVT2CHwjzSTz6SCwZgy5ZztcnVTTW+41pvOaiDFh38t+GntMKTdN1abwAPtNQA8vw/szhbK2sb+tk+EabpNaxVwATAousIixwNz9iwZMWlT9bc2FJ+t6K0pnTNzZKJs94ICJ0K4RNMk4fnmZbh2NnHSdBvmwlb+FiHBUiTB/nWm1sVzl6G7ZPvJSdEBiEp2C8ahORLui61vtbpgKbqApitvWliGVnAngJsrwjT7UKSdltCi65bOhKA1DoKEY5dxPanDayOR3QCamjdIEbOqOHjK6ZPWjQ6gIMcrPGl74B0BDANHORBD/I0AaeLSr2LK0/TFcVcvJnLNtkzCTSHs0cAbuSmjoc6fg0mXZcdW1bNXG3KttbBR0AEuBEcXbFw3d3yNbfWl9xYX1m3Zf39dSW31pbVb1t9/sP5S/SiIcE8DROk6yR/+pGSDXXlZfcq1tZsXHWtbPnFNfO2vTdytF5Y0I/nEIYYA5YuL3hhpVGMvXHgMe65ZwF32CPJ7/NRt1YCzxGibFbU0k/k3c/vJNZg0Wj8/p2as0d2rpw6JLP+PDhm7vafaqId0Xjsx01Tn2JOfyk4uYeQHm2k6Poz0HXOCGbYxxEmfqEF3lr016Or/vnJ5CK/HiA64jC9MSw0QnMpysORPDTixNHP/o9vlu8aO5CgAEGCaKB+QPYJt/KMVouuuwZcOZGAL5C8LPN1mAwQNTQaQPJ0H/NsUkn1YV+WMkblSgLa3qHl0nMMfKXg0ik2Eo86WdJ5dJ2X69GUrVduVt+Fq6a5Md4RjcVumz+r7+5bnG/WBc/adc2+ebO6rjbW0Sldzzrmi0Up+xpZCASnbr4Ug93N+KP62rq7zXKnMx6/uGNmMFMPwXMO1sU7ohc2FWd6+nR1f455OnS97r5s+kTjyp9Xd057fmI/XWWfOlW3UOITN35XE2uou7V30YinLvGpE45Yd74+3hFtvFI5OdxZJnjynFVA1z8cY3B32B0/QderN81dkKDHvUbXB5eVrPihDK6fNpZWbymrqiwxf/5Q9v6coFvUvhDG7y5YW72l7Nj0UCedHHNkGOPGH1pbWvPZ5tuVZVUVJdfKNtZs21pd+V5ZfhDIK9cwmMjadN1U0lrm3OY33ky9NMLEh7ScmXOXn9q04vuKlT+ULThZUlb1xZbaNVPfDHKS4+cBP9X9BNijpBPgxsW4YLquD2C+seOWfbttVXX5lHnIFwohwzBVu86pY4IEgyi///SZG259svrAu5p/IMbI8tG1WH2CrvswYv4RS85+sune7tIb6z/aO3nAgP4+v9+ZUhkcBQeXPBML/puabXl6HPi0YzjbnFHwc7boun3iPbB988w86VMGk6xceAlOBWeAVS7W9QG6mDRl+Y9bltatmDLXz/AgjsNcevMmTrkDhzVTsw2rCEmhTcYO1CuJsUvzLqdcecK8LtcMEE2ebGe5nYM1tXSrNr2jNTifDyzPTdt+eZ6cU5ZN1+VRgtJWwjquzLZBMHclHKe5jFzd1uhaFvsczi/AIn/rgtJbu1ZfLV95oXT52dUlZ9esOVs65g1DFxxxOpBjP5xWJi3YZU2T9oNsf2nofTZdl2ekW44AoK+2HBPM0i05besAS5OcarcPVv0cHAEFoSxAySBCg9KQEXwYJaGFrQomL1vzLwWQx6SZXF0DtwvwvLBNORI2C04SeWiidS4jpoZk12CXQcGiRORpcLwfJfT1mdM33fus/MgsA/i9hpAPUwJEHvy6wfOcMzj6AXqa3FoCBb5UgCf6odWBJaWXuwaWs4NlgmH5PJq7SMxk7HCOA4AG/pKuIwnlhovpBwHYIsZ8DIVXrV51buuKM5s/+rZy260vyn8u/+DkR6svbV55ee27M5AQYZ+uaVRgLTL16ucVFzes+rFiyen1a37asunyZ18+2LP+avnbq4IkR6OIcmEwYTDQq9uHPmZD17OYEfrCMPvCZejWSuA5SpvNitqh69F42/3b5vK7sSEG7D0aqzuxarz0I07VEWIihi09eTvWEY3VfDyl2xOrBxN+KR55tJGi609P1zX40oagNKhRkUtp4O1Zfz9a/s8dUwZrPAieewZMOQhOctE40XBA8xUe+LryPw6XHBjRH/kQ+L3zMKUGxpxRQ+dhJsMaNfw8hKkOPuiUWYe+gP8ew4gSc03BQyxYxPWgYJQQrCGEYdynnAVFoJCLIINx2tB5hLEwpkENEZ8/x080TVCMBc0NEI1i5ke64Q8ORkaECF3a7BNYTr3S5t947PYrQB660KxiMmdvXad03Q1R9jHdqXo/nI2cE7bfirU+brl1cuWkIrmELZq06vhN2LZ48Om0DEeA9MRU8RzzdOj6kaUZhO/9JniOJT5HlJ6jVOlZYX3Ongcd0Xj8uzVeOwV44qyVQNeXjuLcHXZnaNL1suubSqu3rPt6srPv3mt03REGj5rxYfWWsqsLhnfChJ2YLzDQNV0nkdFlyyru7Fi+6e2xo4tCgXC/10Vk4eKVDQeWXSqZPD1CuUBgPWwIks9xgMqvrslT4wXDBmEBZAQJD3BwLA9SX/hPuZEgxTpYjRWIN8bMOl2x6sayKcPDTMvRuCG168BwKBNCGEE9xMFJmPle1/5EQyK/eOAAjb72R8EjiOk5MGlyLoIEzGkxwgT5KXv3/bLq7asPz6DMhwnWNDjbVQR0yuWBebItgHlqmI6euuLKjoqjy5b8sHnthUWRQT6kCXlcudzFhlO+dI0Ln8H8jGgIc2qEeIFgBqIYIQ3l+cEAW9cpD3IWgTmaMkgOJtkCoYDGuD9AMGcM6wTpSDMwSRxi7+vne41xERnSvz9B//ZHwoLygHpgXIhyig0dhTgJyAPeBQeVrzxBHXPsxwQzoG7E0GmYkxDFIQ2zXOzzU0q4wXnY4IWMBjREKRE6CxCu58HWh6GTCCVhjQYZMwzOBdGpPwC+eiHw2JPqAYNgg8Dxe0HEhB+2CAQcoIMYyUXwXQAW4FRAkwDDl+Z49k6BuxsnthLkcf1+OIPAPGPfwDSM+fAZl7aVX1g3683IEKELf5HQCgSOoP/WXyIIfuMYdAwBRnWdcI4E84OxgD9kIGFQcOQGMIHo8oCUE5ygBTOYJScjPMCo0MF6EOSUew2w4k+4B8pdDFtmeaoZpkTTMIblDSzMjBBmAawZSAOy7CfUB84UOsdBRGkep5jqAocICfqlD4XBmSA604KYG4CnkHjiAJZ4EhNPOHRICBZgGuCJNYZYgBG5CkQM+blGDU0PaczQMOMzZlVWbS87NENnPgrn/WE4BB4zTo0ADwsaoFjPw/JcCcoYfFkhYIh8wvQ8ODCemZ4dfjivQSc4qDHdp3Mm9JCAAwixCMJOh88PCBlBjRl5cEyApWaXlpVyfyqhWpdbHrDnAicXgALJTweyfIP7UMFg4+0FS376rPT6ipGRQv9/R3pkqMD5ublDcDDi55FcLTLjh21br1a+M71Y1/rhQCh38Nhxa5csaz6w9MKa8ZMGExwg8nB7p9vY7ZJK0lLuu2cBdzglmvr5wlcC3itqTEC7Ho3f3TbJZhbBMXM/vngv3hFtuV4xxr6ZTDowCc/eXweuc6dLB3Vzkn0pOLmHkB5dWtH1p6freX6CmMEC+RoPDUR64J13/nls0z93vFOMaIgJYgQRJX4tB1GNGPKrtjli15erfzu29uSQ17SB4DAYCBZzFiZ+opNgRC/SWRgh4WOhHGMQIobu0zglNCCowanBYcbxa8SHmA9zUSAKRweCkTDzcZzr9w8kfp/wY0MUBPNHGYFCQWmAh0OiWLBBiEZyNV//3P+eQwfkhQlCOns9jGEB85ovHMgtelPLH0ICAYwo6uf3wydYuhhJX+oI3oOLU7VsyK0ZOfuYTuYvJNClnJiM33K1Ixpv/nqeS3VJjPf3gR9BzZcz08XuianiOeap6Hp6k/XyHbHgKNhf3N47lWeemE158JiZy0FfvWgk4e6wW1qLrl9eNv/4lrKby8flWxkquu5GyQl3SdcRGjH+fOVn98vmzKYaKsoj4YFM+GngzYqVa2s+W759KDEMQpFOgmFSbKAw81OhEQNjA3HDH2QirOXnUyNfJ/kB/+BgzjAdD2ZGfl6AvhYc4DOGL7i6c3X12omDIyQvB053hwOxwWSachEwwgXhIiECfoQoCQZ4MeXCz/vrhBaiQoTFH0leHpxfl0917hO+HJzTP69/4YxZa6q2rD46Qw8BaxmYQzHjwXyDc47yCBwfQ3UM/JWSRR+U3vq4tGzMzEM7KpsrJ7xDCcrHxDw8DjbZEQ7k6rxfPh6oa3laXoCFio3hIRHG1I98uf5+A/wY+8IhGigIiCEC+DamGFFNQ37uywvnCj6wQNMMxlEQ+4N5uUE/CiAeoFwA/4Zj0inxCzrAwEhoOtOkBbhGuUaE0ML5vsFBkq/rQUPoAdDKB5ARgZPJc/IoIgOBvgUidHAAD+JaQZ5G/qS9NpBqSA/q+qB8fbigYb9fE1hEeIToRr8AwywcRsUMFflwgc6ChYKFkaHnhLEeyBvMkRGkvnyiRTCKEJZP9QJNN3IFJroRNPKBuP8ph+QRwoM6ZWGk6eC0LzcgpDIWzMhhE980+Yb/0kYAjCz8mOZqOA8TP6GIhSgvYqFpM2q2rL214v1ISPTrn4voAJrXT/TLI7lEQ7pmhLVBHBf4aYSTQJiwoF8YOQYRgbyigGaEqD9MtDBGIcIiVM/XhJ4Lumo9JCK6z5ITC0tOAY73JreXmnZbTsuj0FnlM534MRmYo+VhH9I1XaB8gXgA5Ub8ucyXm5eDtH7whQJdoEgeQ/0NglkwhIooLswlEc6MAkFDSDdywiAn4Blgvnzij2AUJjQCeApDymmERL6eB3LiPIJ4UCcsomk8D+cNJH4WxAVFPiOUg/kb7y7YeGVz6YGp3MghOkJcgFYnFxnIyOeDDBLCmviTRv+A0OvA+GnQiOQH3qBcH4AHEkzCOEyYMVDnPhrAWr6PBweEhAgGhxj5Og+hQAFCBA3oB8qdSH6uCLyusTzEGZhn2t7scHSxucyzGlfq2MHkhfo5G6CjPO7DtB/lhZMml9z7YvXNhZP6UWPgn2huHpwdKQp4ZIRPDOmn5c86uuGzm5vfGhZkuX7KGI4EDCMwfseadbf3Lat4C9ECOKQCYc38gF/CEKCLRaZ7FnCHbbG7SP77ifYc10tPB5r3ijoDXQf7jsFLjjfHWh/f/GxaZ4XiEZXnwQz2cmmx18ohPbkHE34pHqXXyLmj6PrT03UN05HDJ+7Z8/GTwzv/v+Pb7u/f+I8j6/9+ZMM/D5b89ci6xyc2Pjlc8sv+D5aNHhLUMWcBhAd9tWvdb0dXfzKy6J1p0w5uWP73bz+O7/ro9oa3p7E/oLD+ekgnfmnlrgemTX/v4d6l8d0rMe13ZOWMx8dWx3Z9ULf53c/nv6Xnov/6uuBGoRC6oL4/+AP9Bg/7uGT51V0VzQc3/fPk9ruVH52Y+U7Rf/vDwHA4Tw9oWH9r/Dv3j628smosZUyEhwybOOfOJ8v/dmLxuvEFf8oFt/tlJQv/n+8/KRvQL+gjTufoMsBo8f49G/9xrGTnSP2dd2dd2LWm42hZ+/5ll9aMmxzOACwV4fnz55//avWjI+t+Obyq7tM5X80cFOTEeYv4iBkNJypia4aYd8TI96Iny347Pm95AMN5+4SVl6//x7G5ywO4S9k6i+A9uDipuiS33Y2J9dGzK8EnvLa5raGu7tq5E9uXT8no8s2HL9x8+EpVbbyxsfHm+WMVM4flrzoba33cfORDp1AzQAdNWbL9+Nmrd283tDU2N1dfPbd308IReubRrcsaYTJj592OaPx6xcikHIwJi1avLSuZNcYsFJP3d9cmnJHS3cLTLRe6lPMp8swGz+zpevC9fWBEEK3aMjFJD1+0/PQDcLr+aWXy6WhYjHivfN/Jy/fuNT5saonWXL9wYPuyMZm+T5adnM4OdHjch7tOXa190NxWd6/mu93lkwsTbdFdlNK9y67tmJLShZyfODh+4dYjZ65B/2xsbLxx4ftPV08rTLa1cU29+RNW7vv+el1tc1vtnapTX5VOjCTkdPIkVLz12b1Y6+N7e+dkdlSzdwYtffX1D4YT7g67s7Lo+o1FE1auLKvevHBZxHzaGV3HxuCRZQs/+H79muubSq9uWHFsyfQlw4zkGrnzzz7srV3HZPi757aUVZdNHRcctGjOQinAmnNr52+dPCichJIrplE4f/b879avvrZp7YXSBdumFCXjadW9es3klKM05i0GZ37bbx+Tke9dAvf+zi63RQDCxVPObNp4d+N7czlmhRoL+DjRmMAjh765bOqE6QWU62BmjQMCFU7Zt7Tk2pIRc6cMnT1n9p4VG2o3Lj+7ZM6ud/5V/0NYBEO0IIiKBS0gIqAJmst9Ghs+9/Inq6tXTy6OMF+OPL4bnMPBEp4LLgyhB0eXf1B6a8P6mo0bb1dWPFhf3li6eNNEnQQQYTkUgcm0MPLHT37/p61Lf96wrnrtiotb11Vv/SL+RWX17vJbO9bUVJRULVt2bfYbE4vkB9nge6qYcJEbHvbl2rKqdQveHzpq/frS++vmrhnEc4VGCZLm7fIks0C/wJi8/5+99/6KK0uzBXNm+nW9rq7MlAEirjn2mrAQIAEChBcS3iPhTUQQjnB4kPfeeynlvTAC2ZRBpFN2VWdKmdX13rzpnt9m5qf5M2adCAiBHCgr603XWqkVS+tExOXec797456zz7e/vXNys/utdeeCrhvd/Xf72486q3pWRyn/RcFEy/ECkUWqQkkXJS0TUtPyelqbLvTYrne7RrqajlkrByuj9P+op3qBoxCZAdaJhKZ4qr3DLs+IyzXqco973fcDqwPZIqPVM31vEREeUigqlNN9rkkU0/JW9Tvarg44z3v9Z9rEEtnU4PDfHWzrTTTESRJUCDRjsCRjR13t9XLLmqSE+syKXY2d99faTjfVbMj6jH6il3RIkjQUs2Q1MMI/GBSzOaOtYPUJh/WK1z/Wbd3dtMaa/4eFn0iCikUVABUgVcS6BHeV91lXSX+2WpBesbHde22j84zLerCyxJYSE/PJogVaiJl2OsuxhxTLp43fw7XZmEm7IyIgykGsESE/ZVAvIaRCw6rqsd720ZZcHVYFrQAxjwCHBeZMxrTdqSTqohYpqllX7F/TerHPdbMzMOa17Wpa01ryh88/IbyEBAmIksiS8GqCq9L3tLO0L1uXv7xyY7vv6gbWz0OVxTP6yTjnM/rJSBCMBwFDoD30c2Mi5AhBITZleaLfW3uuzbo7Z2mCnpUEChDygkB0nH5J+d5O3/imhsY4Vt3IVId04mcqtRiX2/JrTtitlzv8o122XY21bas+XfCJxCtYUIAYEkKHaoKz0vekK9TP9MoN7d6rG5ynnW0HK0qsKdro/2Xhp9G8AAzpKysvbm642Wcf62i73OW77V//1Vrv+Fb33bXOe922m63NX5QuzYglhGmzAUij/0A0Rjm5bdXqk27bjWDnoz7bnqbVTSs+XfCJChk3gUeYM5u0qUnrxk93X2oSl36iUoKIxATnSUZCdWPLF+6uS7bE0gwN8+xD0zUgYc5/WKcgDNqnVBhCHu/MOw5xjMUJEVoEZDW9yDq6yXO9OkVLZF6DGZOTiEQRVL2WmqNRfOlRf/dIR1aqhAFgByEyjCGkurz5lte5eYUsKux3x1C6xAzhQv4IIZGIWU/Ct5+9M0eBme23t/zYT0Bi4Pzki4l7O/6aUjgApbIdj59/9f29PWvekIMBMNl36cXE5Lcn2uNn9m0+MwGIqMVzkWWV99aT5NXdh26weeDTp0MXj3ZVp0QO9LEzAUZKn8f882NnQeGz+/CMesacYdYVN4TmtBMnnXJkWW16MjC1W5gWvPpiYvKbffXv5cMDGFc2eHn06bePHwzvbk0LzzEiaOLvtDHznnmj/RtcfweqnOdlRgQTPnbHZuuL3cGHO5u/2W17tc/15wOub7c2f73DObk78O221u83VhTyJJbwMtXz0rJN230/H7TtKsiePOz47qDvT/t7Xh7w/dsBx6sNVcs1Wo0EkVYmEEuSGFtk/bezfd+5s9avtf+3E1snd7b9fMDzfx3v+j8PdxwvkiQOYoAhACLkFyckDwzW/4/ja/+4q+GHnbaXOzp+3u/9yzH/42BRvBYpHBQEUatWXD3a/R+BHB1HtUqcvqLh3w8EXu1v7DRCHcGUj9+02fXjlpIMThLZYDfflcsIXN/XVPn1Qf+fDrRP7vf+dKzjp2Mdf9qwIltFMyMJ5Lj1Pezbl0fc/7LPFt7y5RH3c0+KmRnzsAsBlKyre7t+7MkkmL2NL234eb/3Xw86tqewEkGemDZs8L3ckp/ORFzm28k3tvzwwyWy8Zzg9qO2BPLK4AW2mhiuCR/78utQ+5uhPQ1xs59WwNK0bzxcMf7dl6Hq8YlnN/s3vguuJ9sOhbd8/tX98QejD796FtLJu/9FIO2dal5z0fsBXOq5wBQ+DjZNae9FznFmA8DiwZuPxu6FXg8nmYTYs+d3w2/D/49sK555UvPo58fuc57xnD9cB1BftHn82eSLxxe7U6YRHTDW7r3HAnK8fdmsCEjZntNPwtF+8uWj0QeTYYXCL29sL4mdNSbNu59TcH1Lz8GxyRePHz668/Cb8P6/vLouV57a58dG6XV12fD46MNvn3/1/fvgOtAV9V2d0ixgd93jb6buz70tlhmXMjL0buk7PD754snDR+Nfsi2ff/X9o8v9WW+tEwFI6w+xm/mMZw5FepBY2Djc7blakwjJzPassIek5jzDjakJK+tud7sP5If1FN4J14GalH80yKDscLfrstd+vTPU7mzbkPVOFYaZB5qzPU+4XtJRax/udl312a+xo3eM9LiOFMfOiFIErpd4pre82uUZZnjbdaw0btaWTGbPMzdcTyo46bNfCr2udnqGuz23gu3ht+H/z1ZGZCZEaC482mkf6y2olpBshBIVKc8cR5lXkwSZpwllFdeCLPJq0ci6rjF/TnOh/Y7PPhpoH+l0jvS5h9d3HKwyK9Qg61UpjlCdSJgNFRQBAEnll3rbh20rlxooH40ZCAmLqhBMKKuPhUBndVrP9NtPB9pPOx1X/M6RPmdnBo8ZqEYhiMsTJMIllRf8zeeDHV90e6/1eEd6O6743KcdzvNe++Xu9kvt7RfXGNgghplXOFQgJCQmvvBGn/dmfd4Ss1Ta2jJkde5Yri7iOcarh6xul2BAlNjSNS3XAl0P1rVfczovet1nO92XO123OzdcscdbYjXRGigQHuMYGepKiusutgYf9Llue9uvBm3nut1X/P6b7k0XmiwGI6cBspqAZb1IkL611XbU1XbS3XLG3XLN3zLW1R5cDgBgKnOsdI5wQGLOWDzWJOWsPu8JPljvHvbbbwSaLwe7xl2reupdt4O+rSujmPOZAJAR4tTC0S3+EWd2U7FzvL/9Vr/tUp9naDD4cH3HsRpVVYgkiRjziO1Z0a3MO+avu+z1jnW4hoL2az3OW53uYZ9rb7EaEjkDkHlrc6IEmpr8dze17SlcdTDguDnouGR33PI5xnp7L/nzKhQqJ2AaMopnpHQakpFjl5U52DExeWYTy5gCiHKIaFkRPgmlbUOFeaa8xvF+22hTssobGWGd1YtjyFgPDLaFKN8LE7JWHnW0jw7Yb3nab3S0X/c6bwTdt3qdu0rkELE+ZMxOeIHChsbA2Ebr7sL8/X7njVA/b3od41P9JHICmt1PRmpgnu8QigCymgLMfstYRhJzzpUFg1BQ3XCvw3mm3gh0WBIoBqxn6lJsyW+8vck+XJNh4lh5BAQcQpIxJ/t0x+prno67btdtf/uVbuf1oOe21727SCcQyoo0iCAQnidgup8FBwKsnxft7Te97WM9fRf9q8pVQmNFIgJxaeW4MAVyAAAgAElEQVTZrtpzgeYL3vabHd5xj3PIa73ma73S03xpXftFt/d8rR5QLYnmiSBSqujycg77Gi4Fe+92eYe67Fc7ncOdnntdzkOlEqZMalHELBuOSYLPERwNOg/kA6wVMOIFQWfKyr/gdT61V9cs1WooVLRMiJCZCrNrgZFMsDJt1R4yO2C0F2b5HnbNg1BkZR4ELRL1JLnKemtr4EqFBUkSU2hktRs8QdGU10gGTl5WfNLvHbenZxBMMYYEcZJeGyeX19vuWQNHV5g4JEisMhRhFSDKQ2YOx8wIpgfZ9z1sZ44CM9vv237+n/8qcB0iSsr3MEb3g72ls4ljIMH/Bau7Pm+bMRmY50zgNVzfv7bv5tcTz5+Pjz+JFHvvWTOF/z92JjDPo3/ULCgS8A/PqCNzhtdk+NDUHVTvZxpSF4OR8Siyw0ijeu/k86++vxicShRFPo80AG05FKqEZ9OVq73h2rSZoOPvsR05u7cbv8H1vwau03/4h4WcuNiMKAdITk7+n/a2/2UgK0E2KFivFXWMRiXTz/4xmkKRIBUTy+bt3peHnP/HhkBv9rKMeNM/QrQiL/Xyvp7/+1TfqepEapKJRg8FpvZhqWx4dbLz/922+rKryrzgdxwvJi1barU3PDsbeLGuvNrAeFZIlAVBZ29r/I8TPS86q62Zccssuk8JyVuRcX7Xupf7WjcWxRkQ4CGJgYl7Ngb+++bSPC0QUFxBm/0vm+qHdzpO5ygmBBWceWqX52vvMoOsC6m2zhcJh+H6z4ftzzbXbsvThwTuSFZ+xcNDDJNfqpgC4eHE+Mr6lpdH3P+6trQhkeXJMSJJGasu7wq+POI+VSxN/64Sdm71v9pakBuC61U2+8/rG+/s914ooxgRSJad2uv/U+dyzPRU5tvJN7b88MMlsvGvCNcBpJl9I88mXzy6smN1mjGkAKwmlPaeYDW9z/fVx844KC3Y/IBVj4++rh7PdR6/dJ+t487MrgOoX73vGeOoHw2sjGerjwBK5rzAUbbPrw63vgNvz+eMLLYzTBXs4dW1LYWWaZQY6d7bjTmJWL+kn3PJ131MPKeU4edTuw50ZZtGvpuYnDzlSgnFU1+6/f7zr75/eNqzdAZkhYimBK8/nXwxcf9CZ8UyyuonqT7LuvMmW4IZ3Vo+Ywl8/tc9DNcfj9681FuRHNqnmlA6cIapJ3x9ypn4CyL/xp8UbGL31TvhOoA0Z3CU3WDDR625Ic0CqEuu2XLh8YuJyYl99a/vpemh98vRm5cHq1JYP5E+rWHvDabj+s0xW8IbBwUwrv00I2LMGX8Qn18/3O25Up0Aycz2zB1OZ5hb0nX6zL2dniF7Togm9zZcB5DG+V0dIz3uM/UZmbrQL07Sl1Y0XO/2DAcrKl/Xeszc//zb84PrfutJa2GJOaQBIRura1pvd3uGu2rqX+vtTcN1v+1kW36REYVqcdX8kjqGzDvXNE1JYIbuxnnB9ZmnMCcZnpeVFFvVmiubm/orSioy0hKXGrRGrAWyziTwrICYMD1zAoEOwNiii30do/6d+3xLss3UaFgUrS7Nymw+2dd501+0eonI7EenlclhGK4nll/usY+E4XoMkxZjbGqWrWeuTpBCQYohFpYlhDIVjKnOFtfIgDOQpWW4jmm2YECIIC38JFqQeEXSx0lJSxqqfcO9DQN5OrhARzmdQhRKKMIxn2glLMtYVkJaVjQlr2bI33G82qAY+cS8NecdwTNVS1SkxVggBEhUxHoRxuZu7uwf72/wpOsNAHB08X9VyYqczIM+/7m2pvYlcfEAC3oAZB6hrO3Orkfdda5UAxZRDIj6FBpWZpUdDHadsVe3JOriRJEVtzNN9RhskMUoWZBkPmG5y+66M+gOZoks0wsxQ5JEgBIAMhKV+EBTYGzAsb4wOVOvU3TaT3V51csbLnqdQ52BHXkxgsj8ZLARktSyS+u6hju2HvCkpel1emNUjDk5v8B+dUf3cCC/QhGhiImKsR5j45L2usarHRsPBFMSZEmSP4+WTQW5Oac7rTc9BTVxPOZZHR2DeCppaOy6PRC4XN64sfyftL/T0XialxU30OJ4tNl+uiIlzsD8vaEE+VAR35RJXkidjiXSp7LrIlPdkyQox2Zk5uwebLrudo+0u4ec7hPurqf9bRe6HDeDnjF/x7Cv44Y3qzxZlAmWVJmY4oOtnpH++u6cJZkGxaDTLlbMKzKKL/Y5h/z51QkcFEXIAYQQUmh9Q/etgeClsqYNZb/X/E5HXvfTdrpi2Vv9nPI/C6kMMK0fltSlgFmyYwwA4WVxyfKSE8GOy/bCvFgRaUQCBEnmiC6hscE6PNi8LVnRQiwSJuuL1XjH6rob7vWH/MuWSJIkfR4lm/Nzck4GbTfcBdWxPGSWhWxxakY/mzeWh/ppoXmZsf3NrkdbXGeqUmN1COHPP1mkBRoCJDOIt9RVuO/0NqzPN0lavQIVVdZJOgMyRH3CcQLgoMQRfZJ9jfuyZ+uejkSziKD0+4UGU3HBqssD7bc6CksNSBAVNujTGEg/AXzt1f6+0a76mhQqSJ8JIM/X5r3fXzWYY9BrYhYLkkQJjggrMt27MFafkhVk/kRhWwSG2NmyEhM/ZFZGi0QdXlbednuL/2qlBcsS01dkvu4CRjGE17IUVHLJCZ9vzJ6eQTFlbgtAwCpnpqV1trv2wJFVJi0WKAFMP08FmAqI8WDCRTEzH1Zvt2eOAjPbb2/5sZ/8WnAd0MrtD15MTD7eXBqpLGCTUovr4rPJF09Oe8zT04b5z1gicP3JnfGTO1tS1NAs17yy/TAbvidurs2Y3mfkrOcxB5vvPIQNNPOeBb3uwAfVoKbnDDNq12fB9Q+pFK9czyZgtwffT5iHlooNV+88/e7Jw9G91szfsuuRi/KBxicf+O4DX00jNAaYExOTEhOTZn7yd9AmigYon3GKSAxGQyyXWPHdXuvPA7kWQdRhghQdkgjEAg9BjMB0P1Wo37LN86fD3ktFcdBgYIvVny/WCHy5y/rvRwb/W6cFyDyNiRU4fZQoLamr+eGI79+3O+tIqi7WLEnonxaQz8XcK3tt/31fY48BqAhjwchrkzaus77aVbqvQBRiJKolBgFpBWlVo/PPpxwvN6abFcBTJSpGG+jo+PlIvVXLQd7iDnpfBvN2bwp8XRtrgaJBLR0/6Hu0hkbHGTn6EYnrqez6sY6xRmMYgYeReb3D9tOxjh8CSTM+jN+xxffTIdv6pFnrI3HFdS+PuH/ozqDMa5eISAkEgj8dqqqXGMGvs7Pzh8DKHVt8T6xmtmdLzthB391m1v7AffXhr/7/gOv5a0dfTEyOdmfNWmIw284+nXzx5Lgjku4DMLfvNsPwe2uniL6hmbqx7iBD5rPhujmr2tbY2rIiflYoMnqGGcLcvebtIMwHrgOyrH7vncehLP2zp4+unjo46G3IiJ01Gs3c8zyGio/v59xwff7xnILr71KGP+OYzfmHiKrF24aev5h4eLoxntD8TTefv5j48oItedZVAzC98xpbEzlqnUV1I6U7xxiG3xmh2AE4/34yuP78q+8vBGYtJKd03nz+1fdPjljf9uKaM/IzLxNE9INwvWAduz+/3FYxE0nS8NEfH7G+FnULycY8/+r7y51TQ2Po/lTLdzJ1g8f7Gt5gvAMY7/qCndfeull36Rt9m+fbabjelmkmcl2Ta7i7wcGWut4F1xMLv+j2DPtLi17fugASg7OdJa63Zb9TkHae3WBH/KDUXBiEd4z0NLoszOwjPDuBUtIA84Fzb8yY8SGjzXeM9NS3v16zg4iG++nelh2J5/S5z0GGn3kKc8J1rQFqJFnf29FwfaP3YdBz1eM+Yiu1ZunNS7RRMQaRpyIQBCwiI6SJRUc77UO+Krsl2mCKVnRRWOKj+aXWCtfYWvfO3M9FTTSI4pjIG5NEDWXXE8uvdNtHbHmJRsrHMFc2hi6mEuxEVCStAYl6Aes0BC6mUTqf3T2y1uHPjREkHrD6KFbnHK3HvJ5DeqTKaixeXJnvH+qz7y3hgCgiFeEEjpDFdKFIgIz0KlF0VEJYRxtq28acHVtKP9XqF/KGssOewVFPZpqshZAnMlAMIo4X+OT8K+v8XzSXFgGkJmlx7EJO/r2gSun5K1cXF5TFKQqiogUJOsjj/KHujhFH8SoRfhYrahFPFgpITk+vLaqqTSlYFo01izUagQeSKENAOUhEZr5FE3z+zjubfcFc5kDNBNyZFhlg6U1VgqaUU27XZcfqFp1GTyFVFFGHaVzc5n7ncFfn7jwNYJlOiE1ASq0+2ts/FChx66jIA5Vy8UaomJK7fJ57a93rlBguWqaxKrXo6JLsK76e+670RCnFlCWZ4j4zAoz1amm19XZ/x4E0FihpAZKAJBvUuob+y13NxysSJL1OUUWdvECjyvqCpvGt1q8aM/ULmO+9QGAMhAJm+vxMlvx17TqzoQmJuqtIsSCDSkzx6wK1F5taTtsaz/ncd9e13eyqu+BuOu+znuuyHgvY9vmT4/TQICs6s1lNyroQ8N905VcLUWY9Z9BDRSfFoOUttf67m7z7Vy7GnIAXIwpZP2vr+y91thyrWEL1OlkV1Vn9zHirn+Eae/Z/BKuH4DqrrY/ioBYCUcoc7PXf8nm8iVohKobAKL1hkSis2OV3jvTUNnAir0WCjkKDQsyZVzydDxxpiWSZKZMaYz8ziATpdCVVtlv9HQdSF5OFIv0cSeJUPy93sX5K4X5KCzSKrM9vvbvd9W1Lrn6RBBSeJws1IhLEWAQWFxc5Rza59tYYBEnGBizHAdkgSBITJI5RtYIxBsWtvOQ5dM+RExujQ2oM1v8XYiJkqaW+yX2jP7A+HnAaE1EEJP+zKC2RLebcdPvoOtfF+lSTQJZn2e5s6bxly1zGtI5lJOuJWcK6aZE5Glaqn/LhC9vOswnVFCU+zFBgtocELxRVnFLSNrTZf60qDisSxhRTjGQRIw3hOaoXaFLpcQbXM9Ilpm+IsACgzJlwSa11vD1wuMikIQIjs0gYqxBLYTuJaRH7WQPrzGfX37T9q8F1KJXvZHmU0c1lMx7UFvvpbxkT3vF68Xr+M4EIXJ8Y21U4k10V6znNFH8vO+LeHEnnnAl81NHnOQuaeYE+PKP+a+B67uD486++H15fNPNwc7b/DpBjiEr8vn5+4AR/y67PQo/vi+A7P0eYiFDmBR1EKpEUMb3m2wO2nwZzEwBWEREIZUqfGEMARQFAoBJk2bKt49Uhx8HcWJFSCAjRIu1iYCgo+df9HS+DSTIRsGgQgcJBmlRb8+pQ8FVvUYpoIoqCJRwTQ0U+ce/GlleH2vsSjYQpecaKKO3ortZXByp7EigQJSpglYefLgbK8tJv9jb/tG0V40UTGXK0sLn1LwdtAxYe4sx9O7seNcZ7ujq/61y2XBT1KRVfH7SdzddxsixMu5h+4KaJfBWG6z8edu3JYbXlkZelpJ6R3nuzXtelS6kXD/pfHaysnVGpzhB4YuGjw94wvz3855VW26uD1p4EglHCoZ3+Rw0JgUDwx55MSijMqvj+UMfJolCm/e8ouy61HWGM8cPVs1cZQPa6W5MvJm6ti6yYAlizk6U0r3ckz3ooL/VefQOuRy7BG42piqAj1rcByXzgOptSo7is+t5dX4w/iLCMnozttWW9jRjZxnNB6ze6F3n7oX7OtU/wEfF8r+/6xORIZ/qsIIfghL4wRIm/s8vXfenricnnJ50s0z7zBWDV9kcvJiZvB1Jm/TmQ0grrmmpriyLkro/pZzi7/mh94ax9wpoDX77HJ+9jI/8huB6O5+QXbW9UVpfuvDf5YuLm2rTXmHOKBbCxeFY/je1fsLX/0+43tBj+VnDdSIA+u+Zmt+dEsQGSd8B1Kbua6cy3pM9WE5jy7z1Zapw+o5lXdv7t+cB1z7C/eOWsKEkNLYyQv2dF5Kc0nV33Fa2YtSUoXcOM4mZ4sP0t4LogE80/R4lAn95aUXLEXXfZ3T7udoz12U/UlbQvV5TPNDEiDwDAJkRTS491uUY78sv1nEI5iXKYIo1kqKmxj3V2HCgAAmQMXpZAlphduQgATCy70m0fteYlGgmvCXk4UUaCDSN2SLEoQyiLzKgccxIw+h2e0V5XIEsLJIExdxEGlPIKYrWvCqaKIiuLSou8w/3OvSVEFDGUIDYKmGoJz6ydkSohVYUKIlLaer/9jrO+eRknYB6ZLYHG7jv+KlsKE5pDlOmNQx0vGNPWOVy32iutSxQKBCIsxJxGoaLRhA2SohcEQUuACqHCQzltY7tz2FXeHE+jYwQYvVi/GOqxXhdHFVWQ0CKthhORwMzMQ2rqDMpiQJDJ53KODjiDmXyInU2YsSqGTKDbSHBCzuVu71VbYaHME0lEEgISIUadty1wr9+/c4VGZCZyCJkgSSk/1um/415RpUjMnJsKig4js95qtd0LduxMxRoBYwlLCUSXueqiq/li45I0M1poRjyBTGvOYFpa0ngiOHCpSqdQpiTI+qHgxobgcL99e6GOyoRSgZJoTkZk2ZqLA94H7lUpCsCU1STwCLKlE+bxzvA5DFt2R7y+p2jVwj9rkWQyGBSJN2l1ed4nW6ynG2PlRXqqkYigiKqqWQJ+pxUlhJU4WZ9RerXXM9yUk4SjJZmXJCRRGiMZKmra72z0HluJoYAwz4KFFdLYEBzqt28v0BGGBgWCP9xP1tXpCUx4QSGkxs/mWswDQCQASHElNa03/K5DBfFmUQBKjCzFpKesPtvpONuWngJkSUYCRNiElJS8C/am840JqSa00DQrnidD8VRnx5P1s1Afjifrp4RIct3FgcBDT0GKgiARANEIBAJmPr6wsMh7e71nb7UOShKWEVEAE0qQREAELeKhmZPTCi7YOy7VJafoxD+oXDSOQYIK4xJSK1tPdq4/W2EmOj1SAKSLAEJaHINJgbe1Y7TLuiE/55DLettXYM20GJlWBEWShHV4un5w+jqyqzkDwEfGuBBoD1kBM7gOFJRa2Dq8yXetOo6oDK4jphAhYqTFPE90IkkqO+7z32nPTJcpkQHGWixKgpGU1lvHnIHDpaYYyjP3QIqxirAMXl+gWU+8+T97//otfy24zvjwFXvZEHlnW970gALMjuMTLyaeX7DNwNXznwlE4PqzY/bIKnloZlKy8S5L+XRlvRm3OWcCH3X0ec6CZl6F3+B6BPj8Ko2ZsX2j/Rtcfw0yPzbWgC2pSQrUI0g5CNCK+q8Pt78azF2KFBmSGAAESNiQAzDlBQT0Ak7asq3jLwfbNqTG8aIA2TBlMvAJUuGaH0/5vg8sN0IRUgUQCWCSWrv6zwe6v3XGcVoG9kWKJSAZtKrVWnSzu9QdpxMpBXI8VLNuHGt+daymidNjiWXzJQ5ECXo5vfrb/Y5/21VRAFVCJAMwy5Wr/8c+74FVAtKVjpzrv1ggFNu7/7gnN58X9cXVfz5YvzHFDDkIwEfwzCO16xuXRdjsLJ7yyjVvwHXemH5rX+DlEfdXW9ofbbdHXl/uaP/jEd/P24tWhLLr4Xr1l0fc+/OwaM68vT94opBUWm0/by/KJ3BJeVMkP//GfTz/tx9+uET2M09wG3q6zWH5BoyuU7Od3mc5wI9uyY086+GaPc9eTExecc3OmYfB7czsOjsuSij07j154+GDZ6w8eOZr4qgtQsn+BWcU/hNiTC+o9Q0eHn7AOv9oR7U5sqtIY86h4pf0c064/hHx/AgyfPikgFq6cfi7ieffPZt88fCMN3H2Ckvocr/7GkViEml8zHUPw+C3CGPlu1nwr/S8bRg2n8hHejJHdj0cz8njtdP34VQo8jYOT76YGN2cM/35+1bKSePxEFz3GKa3nNrD3yi7biQAyqlbg55h18pUAgqq24e7I3Jr7BoZctcwuF6f8kZ/ssrahrs9X5S/IRgxM1Dzac8PrnvyM2ZPrWbLwoXupYgo3awtpxYgjhZFlj/+FnAdIglDRQIq4mUhhsgJibElq4o2u1vvDnRe8mWXUUCMHMOhZiJlVJzo8Y65ly8nkBGqmeeUzJlRQV3rmMt7rNzEK1CRIJGYVRggUIQALi272mUbta5gcJ1JlzGtqZDbM0vfsVpZHDaGA1SCsi424OoYDbo703lGtSVTXzEaNksGEqAqonFhYYlnuL9jb6lRFJl6OcOQTJk19FLYNoIOgfTKc9tdI87CVKJCLZXiFpaV+u50O/eVElaQixErXkecCGKrK9oeeYMPB1tOOOo21Ve6y6pby5KXWQRRIFTPzLOgKBJJIxnMlWtswx7/WF/dsbaqLQ0lwdUVbaWJS2ReG4OQHmEdpDqBKBzLLlIJSIiVqYmK39Y0ErQG0zjIyqhDRtiYmb3jWEhTiobXB6+3pCcyNrYAiJa5uim4ttg55PVuz40JoX8MjRAlFx/3t9+zp6XTkGEdhbxM+Vi+Yk3TPYf3cKkhBguIE5Qlgqm4caTLPdRpveJuONvWctplOxFgugBf+Fvu+xzHi02cLBMZI8oqw5sb3A82eHpzAcECQhyAnEg5Xs3e2FKzZ3VmqlHAjPzHtOEgBTgc4VC0GcZjHuxhl3Ie0yimCCATqmfZCyQgQ27pFaf3viOJQj0mPFRYZkKFIhEFpstuAcaVjbfWO8cql2uVGB4LzKYN0Bi9Nre6cWi994u8WBFKTFsfM+za0uB6sMHdmyMSJEDIiYATPthPBgiZox6cQoYhp3R2CykE6RBSGFjFiRVXA467TQUZEtbGcgjwTTXu0Z723WVEQwRWwx0jSLFaQ1797YD7Rpf1kqfhjLXltNt2Mmg/E2g/F2h+4Gs/UWziZZkZp4UwdkuD++EGT19OKJ7hfhKeV3I2NNXsrs5M0QtIZIllrIhIFqC0oKCo68aAd2+lQiWCEWBF/YglnwEQOK1ALIJ+ZcOoz3nH57juaz/nbz3tazjhbT3tc5zztT0KuE5XmDmdzEzvsBaEjAiBzmxaWfKFx3O70z8ccO0pZFX1AM0kvYfWL5iTIlMKZHU34dc0aA95oSNWOEDDpEiKyUIgo7RVLcMbvderYxlcJ2xxhYURc5gXsA6QxPJjvsCd9qzlMsWKSFAM5aloJKUN1jFP4FClKUbiQxZ1hMF1JojAfOhCXJv5PGl/rW0yeplD7fteE5PfMsG42evy83kLaFWID39/IG/qz/Wtpx5Pvnh62jPTfmz+M4EIXH+8t35mBwBMt+46ffT43sbZiRw2iPx686XIEeecBUW2ZB34m5Hhf8uuz4wzRPQ3uP7L4XpIe1SmyAChxANAchteHHa+GlyRiGUF0RhIeCRBohJEZZZTMIooefM2758Pt21IixOZhTqlxKDnLLSg5oeT3u8DaSYG8FkVHIBS6po1f97f9Z3TInCQWapTioiOYrMQaxaQCBdreSrzUrwgZ1w/0vLzsdpmjYpYhTxRsBoFjfLyssldLT9uWrWSYxbsMrWQ7OJv9ztuVOnl5TVPjzo2JInJxY1/PFRm0+GVLdafd1faTHrChuGPeGx9LFwPq9C9/f9MuC5mlH1zKHCtRg8yy7873LouEceXNrw8UucygEqr7adDVY3K31t2PQSH3jtU/CK4DqClavc9JvM2+d3jBw+GhsenlgDuM3GOXwWuh58UAKoZwSuPJ188u9q7bDb4mddQ8Qv6Ob/hZ37x/Hi4DuWVGxgFa2Ly6yNtr8u2I89N8J4llcgGkUZ4kJ5fP/8zw/WZy0nv7uf74brFefZvQIYPWbihijrncHerfylYWWX/OLhe8RtcZz7Voo5SWdEzoXbEyzyg0ZhwGGT5azpG1jUeqFhikADhEdERnFh+LNAx5kljcJ1ZgDOqbIwpOq+68Y4jcLwiVlCxQhFhWWImg87gelL51R77HWtekoEKWoR1AMqCyID+FO2WpY8JY+QSBUq6WL/LMxpgcJ2Zk7NiWvbCNPRicF0W9AuLSrx3BhlcFwSZFTfLTIoc6SBSQjxbyCNOuyyv50l306FqM8VgsQCiVFK+svGaq+X46mUJWOYp4bQAMC8q0ZIdV11bucvVPuTqGPEE7/g8o077iHXV2nyLCUQvDFHiMIIyBpYsc3llzS6XdzTgHQ1673Tahz2Nt2zZAyvNZk4bLcgSZXlvJDGhOxFhxiTGxqDLNt7n6MwQQtl1zDA7DnmDmyBMzB/e0DHUviIecgLHuHdYwoJBbWrzjPT4tq3QCCJh2XUDxIlFDK470zJkCRMCCBKIzJvFitqWcYf/QCnmCTOoo7GimuW4s2H94/62I62tw03OIVdgqMs71u160OO60+4/sDItIRZrDYhXmLF2S73r/qCnJ4cp9iOCRIRECYsqjo2PjuLhpxrM2MsMk0MkheB6eGWE/R8iUU8hdgHTGFaQLGHIlmkAAMiQV3PD67rTtoxCA6ZM4B1TVgGAAQCCSGJFJav+xlr7WFWaVtEIDIRjDEi0Gp1T3ji0Png23wKIRCWCKARUaK533h9w92aJNCxhCJFIiaBj/VzMwz+81c9plB7K4jJGgDh1O1HMzO0xT0QoxCd1u2z32xuDaTrOIvKxWRu9wXF/UWM8E0VHhDCFAbOgZDhG1q9/1N92uK11qNk57AoMd3vHe1wPel1jDv/BVWlL4lg8BZbiZvF8MOjpfR1PzPqp4lhL9GIOfhqSWiQyJIyJCaGysLCw63afd2+ZAgmGiN0ATLhYZjKMLP8ej4y5tvEN3U+6bccdvnGfd9TnHfJ5RjzMcWDMHTxRn7osISS1z9TWRYR5oCwCKxJ7Pf6R3h1jW3JqBYuMIC+K2ACwHhJd6CJOlTBEgHqILvGaK8FWYbCMsUwYJpckRBcCGaetah3e4LteFQtlRmRhMhUyszlgP2UDIkllx3zeUXtGqkRECRIiyAgDA1da1Trm6DlUGauRBeZjTxFzsJche4ULlD5inhkZUn9xI8VzZmqCNDx+e/QxEzl7/mw0MmsaHl1X/kv6A6BcsevJ80Pj2DIAACAASURBVK++vzmwMrT8amg4PDkx+e3JGUx49vm8Z4Dvg+sfOPF5wvX5zEMiRwFzzYIiW/5PgOtD6wtnHm7O9semXf+zbf+BE/wNrv81cJ3NGDAyhCYiUM5t/NMR10+DK5Io07yJRgpHVFHSESIrTCDVBFDy5u3en4+0bVwexzxlEKVYr9PG4vyqH054vg+kmgAf+s3LQFRSV9f+vL/zO5cFCKzgTSSSIJt43RJRphAvEoiopTotTdDS5dcPt/zbsYbmaBnwMZRIqi4+msTKaUUT22q/70vPjRLYyr66BFpy7xxom2xJ1lc0/Gl3TQMVSWLev5xo3JgoWbuDr7YUFABZVvSYvK72/MB9E/7qY+H6ywMVVSENuQ/8QkBs1u39wYl2y7KK+lcHKxtkgjOKvjrSvmu55PcHIrT5Ofv2vg0+vBYY+atfP7v+eH/FW3A3crhwY/5keJC19iYbcsZ3NqTPJE1Nkcx/jex6pG9Aatj37MXE89ONb4nPzT1U/IJ+zg+uv20XF+lwpDF/ZfjIn5CsvivPXkw8fHrv+YuJ8YMV0+bekQ0+Fq7Pr5/vhsHg7z67rm87weD6Mdus2uxIMD+qMZ1hbssMXRRA0yuudnu+qIjLrbR9HFz/LbvO8sCYN0s6SZcoKAYiQR3iiBglUJFAY3zNzYE1wy0p+A8hrjolwFR2tMMz7klLpwgJmAnHKSDK+Iec8roRe9eJynhRpSrFhCJAwnAdouSKa33tY7aVy3SSqMXEAKDC8yxlytJ3mJHd2SgAVYR1iOpj/S73qM8VXM4zxjVl2zBN71AijvnJKVTQLSwu8Y2v9e4rNfC8AjDBKkZ6BE0MtGMaQ2M+l/6Z2pp6h9d5Rzrtd1yuYafvptN7t6vj6QbnSKBsFdFrZRr9OQQxvAIEIgnAyImqRqT65CVpFSvSXfnNF32uG8GW1QncYiVaxAALqhIDqaBhDqgmo5wUvyx9WWHeUmtZ+Rdrm2901TcYCIeMMpAJBkBmBHJBZPGRJEuX1/1gvac7G7A0dbgiLsQIAEbIx+eNbHKMeYtixWj+MwHwlOhATKzZ2usb2+DftkLDM4k/hPQALy06EbDf86RlqBKmTKVdhApvguV1bXecgb0lGgaFw8B+aeulgcDNJhXShdqFooB0IBZJFq1hiYYq0TzHRUngs1gYo0dIElvqnPd6PT3ZCCusSFzEKpB1UKdFMf9E/lFDNYqkl6iOkHBG9DVWfw3XQ5dGxBKHqQgo4gm7LwSE9Ksah7rst5pSJGTCFEIFshUcwlZ4IBCRiceptVf6rXdqUrWKhhmnM1l5HC0vyiluur2u+2xRApAlSSFYRkASm2sd93tcvZmixOoKJREpoqQX9RzU/B79Tks0CtVLZEY/Gdd6+hUi8DO4DhlZAxLIUyFG0iCNic9ta3ngC16tiBOW4Oh0x6Wt/fed8XGLRAIkSZJVTCQTJMltF9cGbzSpQJqKJ4xFcrzWuCSGqtECx0VL4uexUDMdz/t9np6c6XgSVZT1QM8hTSieMYqsUkmPqZGJAkJ1UVFB93C3dw9Twkci4kTmc0aIolBZL1FFl0BNWfXXNjRfr1eJkRBJQbIBqFjEGoHXYKNGSYvGuigxWsRaWREAQdGipE1a1Xi203rRVTbU1X+lJTNOEjScllh4EguoCZCQHm1IcSCM0l9jdSY1F1p/YTx9hWBFYol0RULSIlHBaavahjf4b1SZBYKiNEALBVbGQtgvGJswSS475vOM2pcvI1iLWV2GTkFQv6CkuGXcNni4Ml6riDTEkRElCKSpgpGPz2N/1Ejx4Y1/RTL8az78zbXpkAC5cf+TFxPPL85kwkfg+nxmAn87uD7Po4dDN+csaGaEPzyjfh8jbz7K8KXb2VLI1Z7smYebs/0BcPF38dUHTvA3uP5XwHWA2GIhNgIoiwJSspv+9ZDr54G8FCbkSZlqCJYFJn7DEDCGJoiSN+/w/nSsbVNGHEEigYRAVa8xk/yqH056/iWQahI5JiMsykDQp9bU/bwv+MIVj0SWbBeJIlK9IJlEIgHEiwiIzEzFzJGUI7vbfzrY3B+vUF4kSCay6Z9jsJy6cnJL9Q/daalankAKqJlTk09s6fhjMLPZbnu5qSBVQUBJHT/oulxo2TLo/jaYYWLPHn1o+T9SyDRHY/5wHYdq18OW6R/+zYgo6fCuwA/dGa1294+bVy2HkmDKuL0/eKkicfPmYFgW/u9Mai5cG/z8RN0M7ZB3/iYBzBsYnpfUnNFxjmWAz/oi6qPhHZpdF35xdh0UD569eO38LtsbuUcAK7cxifJrntne42wcmgta/5J+zrXPqVqsecXz47LrQMrtuvrNxOQ35/z5NXtDKjJ7694ieIdr14eCqbPW44GcWdZqa2wpi/DnP6afYbj+vtr1d5idzBn5N26wX7V2/U3S/vuy6xDRyj3MH+5qd9Yb/fkFb9+E61BKWhvwDHcUtoQo7tPe4+y2/E9Ruz5/Mvz7atcLZohQJhdfCnm5Z8666+TGVlYPvyP3HVoVRaudswvg34g5t7K8eG/F6g2xcQmLKNEzdTFACJQX0riaK93222uWEA1gYEdGyFx2POC5Gywo0/MMHFIJq1BrFNa0toz3Bg6skgTINFIQQozFjrAIIUwuv9Jnv9OSl8x8xkRKeYy1jPVLMJaZ2ZaoBeyfBIgCFb054HCNeF2dy3ki84gIkMnWCSJiqlRUYvlzUdXmF3vuDbr3l6oCTwGErCBWR0ksJjrIeAEoCoOUzT2do8GmPQ2VR5yVh+0Vh9pqdtqrTg+4H65v6og3xmDKaRCEgqTA+ETNIgn8XhCBxEZVVeLkWFhWV3dxfXBPmYEN6wAylImpJUFYJJE/IEyNUFKBTGNoPFfSsvrCuuDuVSaiEAKYpZYgAwAFqGGS+hKNDXpcY2tdnVk8ADzkBagNGb9LEBkwsuQc39A+4q+o0SP4uUYbg6hZMMcldLe13+gKbF2h5UXKUr06QBIKTwTsd31pGTqJSCwVLoo63ojL6ttGnP7dJTGAIoQJNlCSUHax03+7JXmpcTHPiwArSLeIEz+XMYqVkar97DMEBSMGzLAGtNQ673Z5urNZAJEsIyohSpEkYHExjuIRoEglSGG3BJvhTAPg6cbUMgpmVHOBkQEpFMMrNQjq85puddluNSUr2ECIACQAQqXjEDO+BDITlFp8sc810pazVNICRcQEUyAsANqVpS031nYdXqmIrNyazWSgIjavsd8LOPvSRZkVTVPMMvUSkAUAomC0wGqvdQSqr/s5VR8RqrQPQdMw8VvERCSEp0grQcjroTmn7FSX93ZbdmY8XVXuGulzby/QUQFRwiZrkoiJgeCksvPdgVutKUuNUSyeRMG6RXwonnEy1HGffYZZPCHLx4CWWse9Lk93DsZ6ilQZShKSKVIEDBYzYzZAqMIIJkgPGSdfJ6zK948GPPuK1JDbXAymImbHljFmlH1qlpS0wss99ttNKUlmdn3ZNSCLNNxCTJAlDsQaP42iMOTGQCQxOlq7aEli4kZH8z1vuTfesmNr62jXmu7YxORPRWRExECpDhMlQosAzFePXbWp8nUGniWIGFZHbAlMYZee0SWkBaJE0la0ja7z3qxcxmPEa0RR5NktR2RMKDETsqz0mN85YktLkajInICAhLQcjKktabzt9G9M1wustJMROngK2E0yzb2fK3XxxsPqV3z768J1QKt3MH344WAaoasPPpx88fRMxxuzsvnPBP4mcH3e889wkOczC5p5OX4ZXJ+aGZ5wvN93Xd96nJV5nnLN0vSdeeh3tj+ML/7zf/vOkwp/+Btc/6vgOkCKSIwiUACP1aymHw+4/m0gL00jaBSMxZDPJCMChQR2gBHB5M07fK9OWDdlWmQMKMIEyHqNiRZU/cjgeopJ0EKAgKAAzphaXf/zvsD37gQCFIgUEatiqPBJRJIIJWbywnEA6ASctGFzx8s9bYdLFJWXCFsj0C0Qpbz6tj8favu5MyUB8BRKAlSjoXF9X+/PW1cdG+j4c1+6Rkd4TdyZXb0vWpZf2mx/1LLkU8QhYGDOPfNe+5w/XEeQKcP/fNi+M5dR2SMvc2LG2tqCtcWWsNE6e9xjdaAn+Gpj5b5Bzx+DaaEtmebcV7bi0/sCYVn4/ylwPaztMRRMmyMgAM6x5bQy54NNJbMcpORca7CrL9iYN0N6SirZ+pAZuQ0fac0OWWqh2Jz2o5cfMM/2mbXrsc7zDJafC8yE1gDqq/ey9cj3kOHn6mc4E/74dOMMv1CIKM3byDL5Tw5Xv7XcMJX+vdyd+J7R95f0M5xSfv8+PyaeHwHXAVSzem8+mXzx5OpAJiUg3naULVI82r16FiV+Whn+62NvKMOX72YurHd3vKUMP5/rzuD628rwqZ23mDL84bbIHRL5bc4Z+ciW4caH4PqUgv2jbeWz7s+UzhtM7/1QW4S+8b6V8g/A9TjPRXY/f/HmutIb3ZvP2zfgOvuTwmr7cLdtZxPzbJ8J12FYGd5XWjiLK2Rw2pk2+9ast8HtfDoQ2ebXrV1/hzK8y8EU7LfOVIY35hxkPnB1bTPd3eRlGwIdIz227uRI3yKNqQL4I68L4CNfhRsotbpjYq3tizq9vIDIBqLoiaLHWCelldpHN3beLDVJlDmfEx2kcaUnuzru962xWmJEArAsSzoomoy+gOPBTt+O5RpBQ0WeKcCxknTmCgVAcumlPtto44pkDmpVrcy2iMGigJmeCwAizy3ieZ4TiUhlaNCZOh3OkQ5nVzonq1oG7HktL2iZbgur5QJY5oGCc4sdDwbbD5ZIYsgcG0NCVVWyUKqDBAlIpwWWsitB31j7ijTZDBQG4hEvQ5VbXdl4Z9BzONsczfKYzAKaxi3fWrdqz4q0FIlACQMJi7Kq0cHC4vqx9W3nSwwAKYThVo43ZG1orNpdujxFpwmV3EuIGDhVKippHh5wHM9VtAKHRCASyisAilq6SKAclLDJ53YMDzgCGRogaKGWI9EcFnmmK2aQpNiM9evbb3c69+cV5sZLjEecYKjOWnPN570zENyaNwXXWTGwpfBE0H43mJphlAhz0qKA0/MGWtbQNuz07SyJZqXykkQMOmrJuOD2Dbfl5ydEs9J+KhMSjbVqZlx+3YqCqpQojRnrdERWJaKAltWOcb+nK4sgI8WqTMJEe8yQFWOhS1BUmAwBDFGXwxyHaaz+On3NpMVC3HimsRcy+cIYGHKbb3TabjUl6oiOEk5kEmtM6Y0JG2AFxepRaua5nsCwv6gMc9AsEhkroiKoWZ5g14M9nbuytQII6fTKFKpic43tXoejL01UmN8fkTCbNEHClgBECQoy5BUoTHc11JmIwlwIjk7VaYuICkTiqczJCgAy0dDMwX73WFe1NVYesHkedzSuNsIYhVKV8QUQB5EqwcT0cx2BYWthwZKYcDwpiSZaNSsuv35FQXVKlNaM9Tqi6CSqgtY1jvGApyubIBPFepkomMghEaJQKQGj6CuMFSGqAOoQ0cu5Kz1jHe4DBTqmSkijJIknmCAWd1UUZaCXYGLq+Q7PaFtRYVxoVYvRM6KJZF5ZWNBStWLN8hhNrF5SJcrMNAFHLG6H6+lO//GVsZCAxJTyc73Bkc6yckigImFFpUwH7i24Hsp1T032wnA9RHWBCgIyECVepJ8JhC7Pbr0z6LldkaPBCDFpe45xY4geSwqJozS15JjfPmJNS5NlpEcI85CjipSxze+5v87u1TGfdubuRph0I3uasBoH9nrPhOGNZ9Tf4u2vDNen+fDn/CklW7+cmPzulHPpG92e/4zll8D1X2++FOL2zmsWNPMEfwFcB9DSeITNaYfW5s/c1cw2kNbs+fLFxOSDwdmKrTO3eWc7Ai7+ThvvPKnwh7/B9dfQ8WOvLnOsQRQQthwsImROKxzat/5fdtXbl+iXGiU+GmJRVGX+d7+L0SJVhGYMl+zZ7f153+oNy0VWyMbK9vSSNg6srP7X074/9WYYkcgBRhmSgbyktOnHw4GfmW8DK3gLi5SISGZwHUmiAASNlk2QoNFuc/zHqR2T3urVS1CyAjVakJ+dcmZPz0/7GncWmi3MclQRRaLhQJ098Gp//bOdXQ9r4hdjLPBq10DnDwMtT/bbTxTqOab5KYUSCnMk1SP308fAdbyqofXlEfcft1d3pOjDfm9Lk9NPbPK+OuoZazTODH6ty/3j/tYHOz33a+PCAL6rq+vVRuv4QX9YFv5/Cly3OM58NzH59fmevPet/4XjAOAcWwJIs/pHmRXn8FHbCkvIXVmOzWnfffvricnvrsxOPIKl1sP3GXKbmPzu0YOHd598NzExumHr2Tfg+hQZfvLBAddKY1huQJdW0Xn68jiz1HoPXJ+zn1ld1799/tX3d89trEkP+UVD2Zzv2Tv0zfOvvh/bs+btOICkzksMyV90pTCu3duvX9LPOfc573h+FBme5AwwGvzz0d68KS/DpbazDxkCP1w9e/0iNXhjyne9fMp33ZBl232bRWl0c1lE5G/+130aBj8cuX6ptzyZMBGg177rJx1vDv/ssTNXlN64Fh+E6zR7IOS7fvtwa86073rVxvNssHy6t+41j326nx+RXQdJwQvPX0w8vx3MeMft8UYnP/z2bbgO0LKSi92eG0Gmoz4LrpNYX8h3/XRteoZ+yne9pLz+WrdnOFBRMWtV4sMHfee3vy5c9wx7rSfa8gvf8l1vfO3mCBHVt1nZaV5uW7HSEPJy18U21LUNsZR7Yc6sVYlwn8HSwobhbs+Ntuykd3wLEeUMCdW7fd1Dg1sPdRnjeIDAgs8xvyw3/YTX9+WAfbDcqOp4ReIlA4fjik743Hc9+/b6slLjTYpJs1BNWrGi6fKWzuGuohoLgdjAkooUMdN1Jp+ml1NW7etqveXPtCeriYlQUGQh1sAnm3UyYt7LCofMpvRlstYi8QlUTFzutnnHeho6singqKhIfIIlwShSZvyGBSxAWUP0alZW6511rgPN2cnmeFMcxgk81UXJ8NP/NQphAESDvKKmfXxtx9laoxEzATdMsaKXkAElppVc6fKer0tdCjgmhC6Lkpq/3rFucrDRW6hTOcxB7g+SZWlKZn+z7+FW1/pV8TKVWdZdjVb0K9a5Bp8ONnQU63QQ8jj6U7I0cUnxQFXn/bXW/hw9hVqItFDmkCE2M0UPliriEsrHL3O12cZ6azrSsbhAFbBZSEiMZ9ZqACkQGj6hcun5Ht/Ttd576203PXXn69aPdKUEa5uGA4EtORoBsjQvMYl4afHFbt9wW3oqRggzQp5MFWBBpU32u+72bekoRpTYlipHDUneZtdYX/tAVVFJfHycMWaBrBZkrDridJ9cU+9cIpmYAgBUZCTJsLHWe6uru3elCBnJnIYmQaG+kVDGNSwZKIdV5SK59EgjjNjDivFsGhOC6xAzDQLBmLP6VpDVrmNexSAaES0iAnNWIxQSEeljkGWp2+YYXdvQmZ2aKqmKHLVQseTnVg9t9t7pLKyMg0x70ICRjun4NKxx3w4GB3K0jHEPQk5hKAzXAcO2MkPszD9velkhVBc9A7HPEFRjw5MEsSxCyovYVFTddM1v3VNdeNjhuliXvkwWNZIoKiKUsSiw+w2ZEzta3WN9jsGq4pL4hDhjzMLpeJ4KxdNMgapARUGyDBvrvLe6u/tWiaE6DomwwpDp+vmpUgIBEE5APMQCwaaMbMfIdvfBpvQ0YjarAJg0WFkg40//N1GWYinREyQv8zS131lr7VtdULgkIU7PL4K60qy8U53uU/WNVotOTyVVvzBa/DwKJdWVNJ5b23ukrSxb1iF5kSAm1Ve572xs2l2WkC6QKCyIBhEyH7UpxD6VXQ+/DT+Ww20ZIoXHIAbHREmKgXCCwQJyVtd9sbbjVktynCV6oYzj0iiO56JNGHMQ6UWwrPD8OvftQHbpUgq1oiRFG+KWO2sav9rfeM2ZXWCBSAVMZpAIPAFCBKtHCub/2kHhnc/nD3/468J1xkmtZPrwz05v33TzxcTzS3bLmwme+c8Efglcn2sm8FFHn/8sKBLkj4bralpl/6VxZpZ00/f+ZFhs6yk2+xrbUUDejGfk0GwilBg4zyScvjnYNGVDOxNK/D22Z57dG+3f4Povh+ssRcNkUhh1TJQhVVW3K/CX/YFXh/r+uKfj220t32wq+3pdRgpHFtBYDscSEHtsn/fPWwrXLfsnjic81vFKLNLGa3Kr/3g2+MO6XD3FUVBFiJoINK9q/eOJwL/bzCxtgFBI/JY998NwnedFTXQMrxVEES9OyB5Y5/rfT217sbfpu91N3+xo/OOhtpdnnM8G8jMIjqMyojpREPjFC5IqXD+e9P8/x9eeXSJ/xkTgUaHb9+cjW/5yxt6TCBVslDAISdzM9xk6f7jOALZiWd/j/elYx6ujnh92OZ/tcb884v7pWMd36/OL5FlXYXlN88sj7h8Pu44XsHVcjMhqh/PlEferg9aIbfsb9/Gcb/N6rs7SY3/+/M600MiO+tcJq5n70VfsHWUPgm8f3rsX0Sm5salm5jbh9pxbArmg8+JEGIR/+eDh6IPJpyFv8weXBleobz6MaEpd78HrQw+/evzkydDlY91Vy8wOlkufmV0H0FK95/6z0E6ePnk8Ov70y+cvJh5f9Q+ceh9cZzP+uc5IygqcesAISBOT33354OGdhwyCPv/q+y9v7CibDVnDJw5gYttxtko68Xzy3r1HY+HX+e7U6bXzX9DPOffJntHzi2cErr/Ld3389vWNrzPhUl7PNbZ6cnN9cSSVDeAy5xnG5b6zv2Gm9ReQcr1fsLNmqe8vH40+mAxfiC9vbC+ZHaV59zNMhh/Z0HV0fPLF44cs8lP7vLo25y1SA4vAnJFXG3ZM3+G3h8dHH7KFmCcPH0Tu5NsHHBH1WqAWdF9mZxq+7mNfsus+Mfn10O6G2fSNd9fYfyC7HllHf3AmwBKZ71rTmeeH74DrkCR0eztGehghfAZcD90hiSsPB9nnw12uy177tc5Qu7NtXebbq07z7IDFY2s742GvcwGGnIeCtvDbM56yytfLVdP2bPMnwzuLXPX24W7XVa/9apdnmDmxu46VxtFZ4QLUkr2X5dI9w93uK772G12hdrDRz9Z33j4FAI3pO0PbDwXbL/ns4deBokhxRxT/uWlFhe3MYPu1LueYt+mGo/JcW/twn/Vxh+9U5TJjvJYTeYNeI5uiUVz+MadzrCW/uWj9nU2+W/3Nl/2O4WDgYZf3aKleoiZqtNAlKtZDiARR4jgdFYywprTp6paGuz11Vx21J9e0n3J2nu6vDS4HgGlfc/Kq2ose+ylHywln/TF3+5WeznsbXZd6Ww/62k4ErF90WveW4liJJeOjRB5IUapJNMkpu5rbb27svLWp/Xpv3RVv89kK29FEnSYKYxFxxgTP2o7RXs+OooWcyPFRIlWgKYkis7KYpp/0+Ic6V1XBRTolRqGChBJXV/vvBQYmNlmvB+1XfI6LHdYr/ubrncGRwbLlSM/HSJyZV4yLEvT6uqqWEXvv0y2emxtsV3oaLnhcV6w9N+q6R3yZaZgXFmoAjcL6BXJc7SW37+w62+mu+hPuxmu+lnudzVe9zcecrhP+7tO97q0lCImiSDheSYKxclpSxdbmxtvOwFig7XhtXiVOa7T1jvYHNmdoRIwUI6QJIkopud3Xf70qK0kjAMDLMm8yUZwIilucjz1NW2INC6L0VOKo9M9UAobc3OMdHQ96uh80u4YdTZcD7hv9vcObgsdWG+OURdxiXqG8QgVVQnX1XZf61w8WaUWtiPiQPh4KpdYZXAfMjW8ahDOIO/0KVThPQb7ZbUaupnqgxHGm7NIhv/9+e5p2sQL4hSwjTTiWtCcEkkVQ+gekaNScjEOO9jud3pHG9uvupov97ts9vfeDvgOFkijKUFVwAqJGTqagri54qXdwbUE0jOaxFlMBMmPccCcpQ+zMiSCcJX6X3jjTsWcrBQgSAigVqSwyN8HFGHKCpfKMOzi+NnDT49iZD3jAa4gmWhaBonJAC8jvsQL0K1Yc93gfdPc8bGLxvBJw3+zvHQnF06Is4sPxlKbjObB+sFgragESGL5g6zLT0m6sQQQRcDynBZyGaKnBmL13g23k/2vvzL/kqK48z5mfpk+PjW2QqjIi3hoRmVIhJISa1diAAGMwYIQFAgES2lUqbWwGG6+4bWNjYRqw8QptGcQmIWQwixYDBvfM9Ok5M3/SnO99EVGRmZVZVaoqlIW+OnV0comMuPGJF/He99777vv+5kMb1/953R2/XXvXr2+55+nrW/o8f86Xbb5Im7Py/PLL99236dB3th7atv21baOvbBs9tGf0yEO7n7hxhU0aZ5+lF42cOdQ0zZU3/PrhbYd3jd1/mc8y71qt1EbDy698YnTs/e9u/PbyZUPnnDl07sKkVRRuDG6L4GGpPY3FWowwF7gFn0n/e3Pr7WN/2Lvh2b23P3XvvQe/N/bizlt/tXH9iw+vf2Hv125c5NyiYXvmkPILGxdec+Cx3S9+e8Mf7139zPaNvx3d+/zod458a9v+7StHV+jsQlQriFClPkm8TIsoFjvEPIba0ef1a5Wu/vFbHx07+re3j3/03m/Gql61flJTHAmcjFyfbCQwjfHSdEZBUxxRly7+948cknLIB995W1YIPnb8rSc3fblXmptaettjhyDCn9sz2TS6W34OVV9b/Hg+SvS6zfVm0/Gacr1NKNapTfpaiqg7zMmymIf++bMWZvmSBzbd8t4P1n/wk03/6xfb/udj6/7jx6tvv2hFw7QSs8jqxY/ed+d/Pr7um9ctxiIlJo1slmfLzll5/cv3r/1/O76yatniSOMpb216082r//czO1+6+2In5Upxy5XzshKTxsrGkVSX1+6fFpx7TuuyH96zdf+/7v3LT3f8/eebD+xa/fjN1yz95zOSc7xqYn2dJOeJfgAAIABJREFUSNmhKLll9Zr/fGr0xLe2/GDZ+S3TirRdd8+a//vkvYfvu2W9tudETeVMYudkIbcCZrr4jltXvfjIpo/2jf7j5xvf+PZtP/7GihW+bRE4bHnlLf/45dj/eWLjA+cXmfMXr1r7X0+N/tcTq9Zm1si/jnY86dvrf4Cw84R/T29qy3audqV0dsE3HvrF84cOvwOpE/7qmnlaW6rs0lv2/vzXL7z55tH3//rmmy88/+wj225aPjUBE1LK3338zuqIaA/uX27Y9bNnD/z1raMfvPXmX/796Uc3XLU0Xd9Prk/ljMx5N2z+zlO/e/mvbx794N333jv4wh9/fP+6S9vXr24zY+TqjT/8w59fP/au+A4g815+pFpJ/iTtnGyf0gNNzrOS69Xlq7+oiq8o3bzywZffPfHR0YM/vq7De3Lx7t++99GxE2//7Pa2CVQqvfCmnT99av+RI++9/+7R44cOPP/Yg52rfAdKU7nuZZd28N7LRy6/59GnXnjzL+998NYbB595dMfKJRMosWLPfSmp1panyytSP+vq9bE/7l5Wk3kq+9Lq+x5/9sBbuO7vvPPyc898e+O1ReJGOa4q7ZxGdB1X6oKtz2Bawd9f3rf9y+1Lu9cb0qSvu+U6dn7F1+8Rfdsh16WFLL1o+61rfjW25aW9217Ydc8Ta6+7Y0U6nZUvOkxafv/O4Bro/n/12vGI/fTl+rarL22eu2bV6md2bD5w79bntt364NVLF09w3ZVfcsGW1bc9E85o5/pf3H7NKmTrdNhZvVWLln/pgfXr/oDsg8Kp8exN1bzKWEULzIXmwmu+vPPuu/70zXte2rP50Pb1v1m7+d41w+q/LclHkkQnaRq7kcgsv+GpHWOHN12y8rJLb7lj1Q83bT+ya/1vbrv1+5f/j/SMzKW5a2KqMtZUs6hGplvp57TXzau3rbn2ye23/XHLllc37nhtx+5D931975VGJVlr2eLlK9c8uWHs0M7tr41teWVs7I09e9++f+fre0YPjO14defY67vXfOf6LMeEXo3oetpwzTMXnH3mCvelvWvu/ON3Nrz0wLYjO3c9f/v9v7z6wmX+rDPPypZf9KXvP7LnwP2rtyyxzShBHn2qsxFjmjZyV/xg8+43HvvqussT5xMHJ/tw6+Js5TXXPrz1zuce2vzSvbsP79z6+3Xrfnrz0EVnXXhOE8tzqTxx2VDTn7XoAnP5Zdd+c8v6P3xv44sPbHl9x7bfrxl97OrGxf983hKvkihWqWsubS675LYn140d3jN6cNfWl8e2vbFr9N2929/Ytf3lsZ2vje15fez2h6/F2loqNUnTL3SfTeKGb549bDO7JG0s0guGzt20cffBB3Z8+8IEI4oMKQt26fX71t/35oarblmG0urWNnyqliyPVt285unbx/71S5csz511sU0X2mz4s1m+pHXV6A2rfr3xrv3bt7++e9OP71p319c+f/YZzWbegG/fJ5gEna3Y/PU9R3ZveOCrCWbnW6ybhhkM8idTmmuzmqU4f/kEqJoWXoSFu2UhGwxObFP7kXTk2vV/2bXxN+suO/eckWZz2GBpgUQ0s8UyA9kC2xz6TJadk39l1813PLdjw0u7Rw/fu/mxu9dv+OrnvnCGLAmQOZTEz2Pnl2++adeRXesfuBa101FGANkW7XaK/AvmlSuudxkJxV78KYm3Gxedc/7yh9es+f32XYdHb334miRWKnEqyZVOfWIS7Yds3vhsmi/Jrxr92qpnN9z9523g+ZO71t19/RfqPF2N54PXJci4tBbz9EutDueCxZ8ySaISjSLDnz976LMrzvvSfXfc9af7N760c/T1rTufu33PE9d98ZLzbbbU+szYOP6Mc0sWX7Ht5pue2rZu//bdR0Y3P7Z27bqvfe4LZzRdHjcwHz67+NKL1t+z9pk99//xbpWdYX1qbe5Tv+ALS92VN93x6z0PH77n6htXxsmiROdIzagQQa63CeZANdGu4ZOhfOiinat2H9o9+truzS/vufftB3e/uXPTK1u3v7F30+/vvvWukWUrmg2zMDI+1su+8vPtew7ft+PQ7i2vjW08sPme/XetfuC6Sy7MlyxtSF2nHHcS/sJUefhWimnzEzaqefgh6sP/VIIWJ/7+7LYJUuFCg5zKSOAk5DpaWt+RwBSPPt1R0BRH1GHMMD7qOH7iyOsHf7vvexuuPa/XhAj3L6sfkeDBOy9864rJRsgX7cGUvWOvP3pN2Q9OKtwGfIO2x1f77UC5PhO5LgVsdWq0LGBjmzZdrEyzgah77v0iFEGJUxd7DxHstckS22q4kcQ1LdY4MY04iY3WHkuzi6vYGB3Fxi90iyPblHVxrUPOvQ3rqwUPKHpccXgbmzrrDSrDNrBsJ6a1Z8NJM9KYVOZN2tKpRyK9bdjsbLt4WKfoMKyOU9twbsg4hSp2kVVYUye2fsijj+nTXPjVKSFw5UOHjv/t48OPrjolR+dB55pAKYNfv/+KntJrrm2Y0/0vuv6R59/BFI93Dj7/wz1rL+nwiZyuz5xS2G+/5rJTcN29y421iY1Qs0o5p7JULfKmFblcYU0pTBQ2WhtkJl+w6uk9e45s/+KXsaqyRqERqaiCddRylI5D/W2bGPxZl6ZpU7t0WNskNrahbeydainTasiCUl6jx4q0Vja3fomxi7VuocBqhAnJRqVI+LY5UquV8yZNHKaAKbzOmq6pDMLtMdYHy1O7OHXn5nZJ04wYnQ4pFWujo5ZB1SsPR4aCSZFFBnLsoPaaMYQUypRrF2NutnPYNE11y5lFFsaMqGSJ1rmxBqXjYqWkz7Sol2VQIjZJNQraL7Kox5Za9P5IyVYxiuQNpyox3sYt/CWL5G+xMr7hYyx/l2CmW4bVvLJh7ZPUu8Ve5a7h7FmRszs2jr5239YHl7k0TTAtzXkU624mSFtIrdIqThpRpJXObGp0FqlmpDymMejU2abWTSlwi/VojG65qKWtiZpDGvlCTWQAxqmJM5NkyrgIK4Z5a1pG51pnCI+XQr0KCxfPhErjVfepCHUT5LoOujRVKErXxE4iTCbHqn4m1J9zsl4AshC9yXO3yKM0YLOh7FlxlCQm07n1adL0JvPOoYyZUoCtlEfzQYn81KpFRmEJNAxYKs9CKYlhZ1jzr7QwrCyA/zFBQ4LbxkbGDsPX75s696ZpXFPFebQwjRs2SbS1LpM1fLBogs1S2zRYetAnNlNpbkzTC8+45GmV8EzqPFPwNE1ZsSzwDFodrQ2LmaMgY4ZD6wwViHRqTZbaVtOhggDOQhuNFQGss1ns/ELnEpemrumT3A5lRjkkcvpW5Jdp00pjrKiIZdKcN1jVPNPWIw0zy6033kTauQjl6JtNm3rncYsjtiQDvLpWx6/CeuwWt49PXauAo1DCIMe9oHOdpKrhdCLjWCkGqVxq05ZWeTLsbQJi1reSdJHyuXEe41asYYiCeKWbACn3ZdiJ40wS6CKw4qZt3356/1sYKrz72r7bVnRtUN7g4dGkdHrb41i6+O1966qkyAFX45OaVzx12880fEi5PiO5Lk9Yj7lbCt2VsrmyOarjGO9d7rQPq5vIY8uh9qZv2WzE+Cb6JG2iRGHkkHrnUo814azWSaTdQp1jLVOD5U+0gpgu1qGt909YJBOLoyqloyhK4CeHJUq6NCzjiYq63mo8iBs6PVvlDWV1kiitEmti6yLjrbEti+lWWmOCWcMhht+nufCrT5iA0n7kqr2/QnDyxONrl3zCR+fhPhkCpVzvjFp/Mkf/ZI6SXrLukd+9hQVvT7y291So00/mNKd1lFKud6XNT9RVT2vPU9nYuVxp24ijOFFKWYPOIjeQQ5gJDA1rLPofncf63Oufe2Ds4NjKC/2CNEqsRs+iPKZOoUx0qrSDXMdiJUZb7zwEfIRwoqz7plKjc+WacdbCEN9Y9H1KJ8YbKLccXSdcyYh8ynLrDqtfy1rqVnvlMgzxlbcq9SpNtF2oVYx6V6lzzdQv9g7luJXxw8bEENk4C3RrQa4r09A6MiZ2cBMgnxqFY2ys3HDkYtR019ZKf+1y43Ktm0m8SOkMM900TgEh0SC3ZA62FBuHLkJ9NeVRICxkZSe51JvTibPFJ0jVhtpRzmF9bhRBh4pDmZgzEx+1Vpx7XpZc4NRyY5ZecO1Xbv3d9zceuO+K67z1qbOLsMA1auOnKm1pm2Lt8kRHsVIiLY3LlW0mBqlzcPlbLJmWxB7T5dJcmdxgJrZu2CGEBBRKrKkkhUME62N73XQo8B9qv8u59JTr3a2xFOohwI4fYmQiBfxNirRnLfpZF0JdS7U5LEpvssy1HPRqLuMcLHCDJdatjWzI7IO+TUq5rrxTsDNzqiWNEy2hlOtl+LrbvPKTQrTDDeESTKGHYoce1RnqHfom6giAjFcKfiafZhp5+xZjMptjJblxnplJ0kSrhluYGIUifCpVqN/fn2cZWocOxxKG1mTO4IiNyMSYeeityVPXkuUSEDfBvWiscWmk7YJERfhVZnXmksyi0ACWZY/siNa5S6QZe4e69xr+shgL42ExOqyal8TIwEfLyTx2YpWTUoIyMaHj+VAmLMgNiML8WA4gwbIQ5R+mX3klqzBa5H04LP6Aqv6ZMSnWBdCpc5n2eZLBVYcIE0abRoJNQXRV0+ODYp9EiXVYyLenA4EiOfT4e/t/tmtl1xq63QSUvvy+A9D2vx0dL7Y6qR4e8A26T7P6hHJ9FuS6PMhQCyVSDsvSICPKeosZTMh/ihM4kROrTebTVrM1ksJZC7meYDUa59I089kin3tUPdUNZRYkDrVmEAJQMQZTlVyX0UyZz2mg2LM4NgsXRlFDq8RhBTmHwIJWeK6XOWC+kbgFsYsSbVSkFRz3MuZIU+fPyVBCVqIQLoLnlXL9FHck6sbv/rmcdfzKG8dDkvmbv9tzad+SG9UtzRfzjsDpINeRs6ebK67buOf73729a0XAeXfJZsXgUyvXrc2j2KIESiPBkmnSa8HrixWSw6RfuIsj7YdUvvLlb207sPurS9Mzs+HYJs0E84h1Q+nYaKidINeNhNMs1tvSLomNSiyUG+Y/5yrNVbMpWsImSmMulzZIK0OhVlFTcBnbxJokFJBGCF5B6SF6L5I49loE9jDKz0F+WO99iircWvvEugakC44uYVUUJNeJjRM9HGOJ1MjJAnPYJ3wKjdgtWGiGYwM165zLsK65cZgXHcdZolIoN9TddonUytLaG9RCd7HRsTaxqEq4GFDpGrFuq5vap0nLQMGhnJ4VYSmqMnWqZeBeMOmQsZ8xWkW5veGGu5/ZeOeTe+94dvT25zZteGHP2Gvf2fj4NbFeaF2WZ+dr1RoaijFdu9kUaY2wc5SYxHoEMNOmzVCPDaXXofoykzgVYak81NKz8AtEiRqOhxqJilWK9eqSoDA9asmPZC7PrM1CKFhuT5FkhfaG2T0beadcD34WxF2NyXER4ZHB8MPANiQIhoTwEMawOjNxmmjfQPQYUYlYq+E4biQqUjZWFpoTf95kqRvJXZY7U67WVkYsqhSAfnZKxr6EMbBDGfNArjstNefSXGdNl7VQ1U9bY+ElgRBF0BrLDZrEq4ZLdCo8vdI2UvFwvLCBiRYY76H8HRR7wdPmGa6CzOpXELrhLESxw/OFDBojiOS+i4cbGordeOsyqXhvUJ4gkciLc41EnT3UGIpUpOAKcUh4cU6Lx8k0FbItrLYuzlKEXpRuxGo4khvZ+0SZaBgtJ8ly8InhbkqcTWwo/o/6/4VEl7h6uNDisMO9IzMjLFxtxkTy14DbDZUOrU99llncJgaTE5DdCecaMu2dgz8tx7lYaQRQ7EWKctDqqD8fah9MctX6tD1+9ekl4G/c+6MHR2++FHWOez58aqev0nVPHPvo2Ikj37xqfPsBV+OTmtfnxCnXZyrX5bnsE+XwhzT4FPlXRpZpMyaBk1PFCVLvELJwmfe5tegetDYyHQtPQEh2i6VQEmQJ2oY4g0XvW4xpZL6WPO4xMwpp7waeWnnw5XATRCaJkaeEBy7y5OEhxvboKeH+T5RvKBdjV3ARSFfqtc6cSTOHGHuiEZeIMeeKcr33MKX2pOhzU83wK/WNx98pZx0fPXbijVf3/+yhuy7Oxp9HM9w/fz5oBE4TuT5o2E+5PadWrhsb+g6NGVmJhbgVLWRUBoUDdQFFoJAbv+Qr+zbt+svY9TeuiEwMtQslZpEkrlwphxDcixREuHQ9VknUV5b4ypEk7JoqbSqXQsciao1ap0iTlk5K8sJkuWwLyY2wPbzVBp2pzYwEM+FHiHyS+FjkvZSM8can2uEnMaZwI5UMibjQaUGuO5WYONE4oiwJDy+28dohG7kRI7qOvhIlTaVwrIGzHSnQUK01jaEha0O+sdgPSSmdflFAS+L5mcG64BLGRHVYGzQnku+s16nD0uYW5xhpnyw+d+jmr9705J1bXxnbcnBs8+tjdz192zceunLJEo/ZzcheHtE6i2KdYOV55JZbJBL7GE6NNLZZgqXCckSbZS1ra5BJZyGinHYSwFSocdNQuqFdpLNYp0Fkwq1vPdK9MdUZOXqh0z/Z6HoQpYUwQ76/XAUlww+R66LV4b9AXrSF7MyRnI9sRIxVMCMDmYYIVDSUjTBJQYZSxkuSYuY8ItKlEh4PqleKfZIbuXAuFNPXDSrPYSex9cqlBhPFJW/feoPsQhejYSLALpMcM20yye+AXI+1jlQSaSPTtr3wdMgxAU9YG3alQzxfBoRoA+OSGG4CXdx3JoktliKXlHgcDtcXI0C0f28jY4ZjHSUOniOTOsx8dA7J/E7KQ3hMYTHIlhfXmcf6d4nBPAIH4HCWKY9y/TpV8ICIIwyTXyrFLoaJTwGjRHh8kOOJ+R1wK8jtj1PGbJmGgn8KN5dFKihWgkcEH5jkn4w2UXAB96M1XjLvkeBZDlNDG8sK15ukxE9y1T6RsRZtmNcE1JWPvCJrDN9SK8s6qR4e8A36XBHK9ZOX6zIPBw5p1I0Tua4k38nJPCKFbHMzbJPI6LjQ26EqpsxGV5gVWAhvmXaFJy+6CvyPeXl48OF/jRVBCleoaHUIcfkhnNnaYA6h1hnGWCiRipEKJil5PJRx4XWKSWuo8+ESCHIMI+DlhXcW6XwyhQ/pgjFGGE58w6dYr/Zpr/yKBEiABEhgFghg/nkmHYHHxG5Ja9c2czovegFZ98Smi9N8hXMjJnY+tnmEmHhkRe2IoLWoLecV4qKImccK2lg0MHoTa3JnFjkzgqW5TI4VsCHPkPxlEhQiw6ETdEZWJBz6Lyh2oyyCh5jwJcnAYX64jpHOLcF/iQGKto+diRyifyIRPQJ9wVWdOA0vNnLHED6FLIeURRU339QuF/EgygThX5MoFatE7LcJPBdQVsY2rWta17JOpgeLI0BCtT7WPtZpgj4UU+5RQy5k4KPemKQBw2UAd7nRIldsqn2amqylmk7lscoQY3QG2fLJOUmUxw1tlHcQ3pBPsgChLIQuE9/EWZAlJotMOqzThk4jjZg5qt5AazmHOXUQxDJvH1XTE6j0LDJZw+aRSWMZqyDlQcKeyM3GtOeimFwh12vh635tbDzAXgTPJQKB8AAGLcUE6TK0Llo9xjVHmrdzTVT2QQWfTFIhcOFi7RraDcn/YRSkRRxamfHnsGXwLJykXA+T2FFCSARqAhWKdhgkqOxcEj2sizTmcIQZ7N62nA2eAkzGhp0GSYgNl4pid8jbL3mKwWh7RSRf5Dpi7DKik0QSVB1SyBaRmRRJamPM+rY6t6ZpbQtzMVyaeBd7BMPxEziqcuRuQLF7lF5E/oiU3IM9cCrJNMwmmqtMYIEHDO3fY0yIyecZxqgy9otlxkFQ7CGlRTIOJDsDdY5QVSE1mTfwLVmpz4f7OrGNxEaJRdE4KPBUXB6SQYHZGvDPSQIFGq2D5k8z+d+JD0KGqXLKKMRQRNcZFup3c9FVMQMCA67GJzWvT8OgXJ+RXA8pZImGazPkPuEpDwkNR6mkEkEGIzcM7a8u1zGAkOlMcFhKWKNNrgfFHnq+INdDuANCHWOBEGsNs8UyzKQqFl+RXVlXlBUJcl26c/Hyim+1kuv4lch4caCKkYyu01VBAiRAAqcBAZENEkL0NpH1SCVJGLnKIccKgTijXVMKwjUxvx2iSiHDHBnsRfwZG6MfsYky0LqYQCvKWZy/BnHRpjWLDOrSQaAWmdKQ65LUDl2CZHKUsxLJAc+1xABFfqQIa4d1pzBbWLS6xJOhi0IoHpXkQvBcusWqmBaS4SXGLsJD5LrHsmQug1bHFFykkiGQKNnaCGwGXwMklsh1RNRzY3PR6rnkjaPHDMpWZvYiqRsrn4WKs4VcR2QypLaF7LZxuS5FanKVW5SnyRHdRVJzlqiWJKsbo7zENoNcl2MVI1dMfAsrucam0OqFs0D6d4P8becg5iTzTiNFP0ElgjQ2WWQzxORDhnaRoI7NDJKZi6ZeBaurF30GjmHWuvxfj66X/LHPIppdsBXFroL/xWbONSGDod+ktpzEKiJodY/ourgM5NLAvKDYEbiW61WZV73oZyeGQPgLcr1ygmDKAOR68IZITqIcVEImKuTDw9lkm2VUXxpJiKlYD3eVkSwPmS4h1xpCvRrLlbn3IbQuERfM+6jkujQYKRwHRw/UOKbTQ81KTTjMB7FSgRg3F9o/fCvWiVp3EvoW7HIPFlWT5N6RmyJkVkqoRha6E7kuSSsSXZc9FzF/acwi1yHRs9TkIcA+LteRRQKtXg5x0VqQ3VkMRDFRE9k2IZETo99CsUuUHikDoszL/ynXZyBEJ2nn3LMQmFQPD/gGfa4y5fqM5boU4ZA+Wyqs4FkGN6dEy1F6J8jgQq4XnUfZk5Wz0GV7uI3F5Vk83OGiLgPviBsU/R+S4YuhAB6F4q0Moxn8j4ep+HElRC9yHUq+mJAm68iEg6IDC8OsYk5XmGjXp63wKxIgARIggU8HAQnHSZeBCHDIaceo2iImFpLhnULIOlW6maBvMipRahgLiMpbdFi6CKAVbt9CqxdyPXyL+cwW5bKDF1syxYJ+xsKh4iZQ6IyQ8S5ugmpWbeAs7gDIGxT3wjx5qC+ZEh/iloUOCcuG4yeVXIdkLdUafAdSobpYRVzycvE6iNWiJBjyAiDdi5g2ulcJCYpoL8xDDysGyDw4hNZDDyunUETFxbceVKLkVAfRIodGMXA4RPIEswMy03TKQ1Ej6V0biDcMIcYldNnYIFYllBoUeBpjIRgcXQwo5t9Bq0OuQzYXPgVcuDS2+BU8LLBcYuByiCq0Xo1AKg0sF7cwo7Rh4rdlsncIIZT8x+V6GHVYTH2QSyAlcoNWT0Xf4jpKKTgXachg8QQVxxKfAs69FH5t0fX+huHb8SyAcDnwf4BQxVeCVyjsCpZIG4D2RtsuXVeImcMJFUZowV01MU8BW7QQcQEAqdRowOULy/pAhOPWQ6lCGYnhWMiTR4MMTihpz3KLSQMDB/HIBK0eYvhysUKrkHKMODR8WDJcDCWQJYMyDEcxLb+4ZepXWW4lxMwRwC+S4dEIUQKpyESQ7FF5XbaKMBwNoaMi8lS4V0rFLo+RUqV3iPbi7cTNafJrWt4d3JIEugkMuBqf1LzuM6o+oVyfoVyX6XZl11g+y/AYCn1YTauHqea1/qP9odP2AK0WJpHBRK07LLLLKs+9jKXGRw/oJKoeoto/MvGCSbCqGEnIGiehMwseVpldL+ZVP+QLEiABEiCBTyMB0X61/igIG9Hq43Jd8sKURlQcfYeyGnNiUYk6dDTSs6B/CRJovCsRx7G4jyG0KikeesbS9YyJ62XYs0OPhfh2GNCLT6FUyKUQEuER5Eft/2pkU9dpOIRoYJxXIdfT8kWlGWSHoknKndTFRpXEW/WkQgBqWXRR6f6Waf/FPuWgNbkuKgW6CI6JDEnRmDvti6nmoo5Qta4m10tLwuAB9lSKHYvb4aKIAUX7hFaX/h3/i9MBGCvfSu2SlWddTlyfmVyvN4bC0VMEnMUvI61CagSIHwEniFB5yMN3mKFQXME2U8tzr1+Fdvi978pwpsX/0nLq7aFU7GXjrwHHTyTVohomiRnBQsj1YlyH+YkdZy1Iu3iWZ4ErGK5dWROhPHq9ceKMRG/LzA45Fu4suY9KsDKEEzsrG6o9yyfjtolToGgn1cbjZtfHq+KbgGIPMnv8fpEbv2pL5VlXzSyU0AtvQaD6obyoX7vu12Uj7H0da/S4MQlMicCkenjAN+jT5inXZyrXq1Sf8kFWCPXwth199wOr+qR/Q5SnofR89V5QfJ/tWr0cRdWMKd0EfZ6J7R7odpv7G8ZvSYAESIAE5h+BQveWMrjSM1LHtByOl5HYMJoP0e9K7ZR9XHt10o7epP62Tx+Er8r9hByx0JeV5tU80d1CvQN+1auKp0Di/8H+6v/iWGX+Wo8ub3w/VS8/xRfVgeov8NsiFN/+oow9gmdwc0wMqqc9te6+ggN5XMnL2gn23MkUT619M5DH0UP0WP7vGKK0vS2iBWXrQrC9+uu4iOMeivYj9rO/xqFUp1X7qdiOEy7cQFXLL1+UyY9h2jkkeoA5izzrJ1ujUeNTXbv2F3Je9ZMqvQa1c6/U+/iLqTOs6+1asykvdPvhOjbo8bbXJatD4GsSmB0CA67GJzWvx00EOJTr80Kuh3Y83ouELrBjvFWGHcqOqnywypN6CndCNa6aeKwwhT3whyRAAiRAAvOBQHf3EeRKlW1bxsCrJ7/I6UoqlK7hzv6l6kfqL6YEpJTrsnGhz7sOJ7KkEqX1IHzdzk6FEGRzu2iptu/1onMn7T+f0rcTHLe3YsepjYvJbqt6HrEm1apoQTHxLYi92hCw505O4uzaYvKlYm/T590xhpoiLRIBoNi7T3bO5Pp4UyzbW72h4nUx0GrXybPLs+N8J1DsXUcvmnpoJL0Ge9ISxlV6ezx/ipe+sK2akVHNQtRKAAANlUlEQVQ1nvZmhnFm9VXfF72OO8WfczMSmAaBSfXwgG/Q51YaFLk+4AQnNK+je5vCs6zXY6vsNqby+Ku6ljCmKTV599GrT8TOKTT39j33aTT8igRIgARIYF4TqDoIvKge/m1yUSY5h0+q/7v08wT9S31v4fVUurYqul5u3GZh356u/UL06WfrX03aJ9Y3nr3XE8n1wjch59h+LnUje9rQDqruywivp7STjvHM1N4Wmq0woIiuj6d5l/Hq6pNKl4bUbjFsYq0+S3K91my6wJbjru7milK++JtIM0M213bV86L0BVjfQ3hdkRl/UR69MwDTfrm7v50duV47x8La7uN2bzPRJ70QdUPgJyQwUwITirV59OFEd1DBhHJ9LqLr4w/QdvS9Hltlt9HWDfRuteWICk/PMsTR/SStPplgONV9oHqP1f0tPyEBEiABEvgUEag6iKIfqbqA+jlWH8qLIqYXFPu4tpyo/2r/IWRbfbcTv27bT5t5NdE14eftO+/Tz9a/mtSk+saz97om19t4SlfefiIdFva0oYtJh86c6n76KswJj14MdcbD7LZS5hO9mPi6d5hXvZ3wiP0+7OIwPhILX7XjrbW3juYKOzsY1t9WFoYX/UzqgbRjD+HtuFCXo3caP+nZlRvMiVwvd95mVTvPCU+qj9ul1/b8nAROnsA8UuYTmtrnnqJcH0S5PuFV/MQ+7NNc+BUJkAAJkMCngEB9/N3/dDpVZc1HLD+syZ7p6bGOMVnbfurmTfq63f6py6cOAzreTn0/099SRHsnWNBrgzDF8+rBZzx9uraf6ZtaTq2fSHmCWBVtDmbUjtXBc7pvp21qDw7jCrPdtj6ox00t9xnkerGr2n6mbWTfS9x93HHjS0sm/aRTrk904fqbPW5G7Uw7j1v/qu/rXsea+Ch9d8WfkMAkBD4xoTRHB+rT/inX51Cud3Hv9djq7DbmqB1McbddZk9ye3B7EiABEiCB+UWge/Q/of2dkrKm1cMepOT1rPQRnf1gt4W9Pmm3vE8/G76aorWT7mdmG0hV+Ta8syzXx/VVjc/MbO6U7iBZXZS6dK8dcYq0uzebtqmVJRO+6DKps711bDDhTsKHtS2nbeQU5XodbB9LJvrqpOV69yVo+6TjWDUIbZt1fd4LUf9f8VsSOBkCU5Q5A7tZ1+0zDoFyfa7k+kTQez22OruNU9uSJrJ8vMXwWxIgARIggflOoEt49HvId4zUq99KZBUris0Gjc5+cOqKpf3offrZ+leT2lzfeE5ej1Mdz4SfAEJ5dj1tGN9PTTzXPyz3EE65535mEoatDtd+rEkh99lg2nZWNnS/mMiqPqg7rerYYfvepm1n+887j1X/tuO4U3s7Ltenf0EnYVIZUDdyste9+PQ78cn2yd+SwMQETq16mvnR+7R8yvW5kuvhudaOvtdjq/MROfNLPpM9tNs88S3BbUiABEiABOYvgWrkPRWx3b1x9UmIrk/U302372jrB6v9T+VF+1WYaj/b/qtua/vsZyZfVQfC+XacXd/Qa8+Dduyk+237mfbcz/TVXXUuc/Fi2nZ2n3jHJ10cJje7Yw/hbdd+pmvqSR53QmM6Ppz+RWy779pPbXI7p7B9LzizsnPuhATaCMxE+wzCb/vcUKdSrvcyaxCQTcWG+W7/VM6R25AACZAACZAACZAACZAACZAACcwdgV668hSvu97LrLkDMbt7nu/2zy4N7o0ESIAESIAESIAESIAESIAESGC6BHrpSsr1k8+Et1iWsy0Ho3o73cvD7UmABEiABEiABEiABEiABEiABE5PApWQ7H7BZPiTV+zdNMMnp2cj41mTAAmQAAmQAAmQAAmQAAmQAAlMl0AvXTnQ0XVlL9z8b4cPvHjgN888+a3NN4/kfrqnPdfb98I618fl/kmABEiABEiABEiABEiABEiABD4dBHrpyoGW69pddO/+jz94/8Pw9+bv7r10wBR7L6yfjkbDsyABEiABEiABEiABEiABEiABEphrAr105UDL9QDFNM+7/Bvf+u3bHx0/fmLfnSNzTWpa+++FdVo74cYkQAIkQAIkQAIkQAIkQAIkQAKnLYFeunIeyPVwzVb99MQH73/4pz1fHqhL2AvrQBlJY0iABEiABEiABEiABEiABEiABAaWQC9dOW/k+p373v/g/Q+f3nDeQCHuhXWgjKQxJEACJEACJEACJEACJEACJEACA0ugl66cH3K94b5435//cezYsUduPPkq7nNxbXphnYtjcZ8kQAIkQAIkQAIkQAIkQAIkQAKfPgK9dOX8kOuJve3n73x84r0XN58/WMXhe2H99DUgnhEJkAAJkAAJkAAJkAAJkAAJkMBcEOilK+eHXI8u3fWnox/97a/7bjTZXNA56X32wnrSO+QPSYAESIAESIAESIAESIAESIAETisCvXTl/JDryRUPvXz8w2OvP7rSMhl+sAicVncRT5YESIAESIAESIAESIAESIAEZp3APJfr2U0/Ovgf7x5/4/urLrDGzjqdk95hL6wnvUP+kARIgARIgARIgARIgARIgARI4LQi0EtXzo/oujWuufKeH/3m0DvHPvjrW389+Nqh1149+OqBp9YuOcWh5l5YT6u2xZMlARIgARIgARIgARIgARIgARI4aQK9dOW8kevZ1dv27X/nvRN//+D9D8Pfu8f/fcMyc9JEZuWHvbDOys65ExIgARIgARIgARIgARIgARIggU89gV66cn7IdZNe98NXPz569Oi+sa+df+7I4OTD98L6qW9PPEESIAESIAESIAESIAESIAESIIFZIdBLV84PuR5f/s2Xj3/43huPXeW4kNspzv+flebInZAACZAACZAACZAACZAACZAACQQC81yuf3H3/mMfH3/z8Rt0OlBXtBfWgTKSxpAACZAACZAACZAACZAACZAACQwsgV66cn5E1016xy/f/XAQJqt3XOBeWDs241sSIAESIAESIAESIAESIAESIAESmJBAL105P+S61lc8/OJHR48effh6PeHpnaoPe2E9VfbwuCRAAiRAAiRAAiRAAiRAAiRAAvOLQC9dOT/kemLydU+iJvy/rV86UNx7YR0oI2kMCZAACZAACZAACZAACZAACZDAwBLopSsHVK53m3vzT44d/9vHz++5rPurAfxkYNsBDSMBEiABEiABEiABEiABEiABEhgoAn0k7SVfvOKSL17RZ4OpfHXGVDY66W1al239xeGPjp344KkNS096J5/kDwfq2tMYEiABEiABEiABEiABEiABEiCBgSXQR6sOrlxX+qItTx1+5fDRd45/dPxvH7/70qPXtVyfMxmcrwa2HdAwEiABEiABEiABEiABEiABEiCBgSLQR8kOsly/bO+fPzp69PjhV/f/4pFtV57r+5zGQH01UNeexpAACZAACZAACZAACZAACZAACQwsgT5idnDleh+jB/yrgW0HNIwESIAESIAESIAESIAESIAESGCgCPSRt5Trsx+0H6hrT2NIgARIgARIgARIgARIgARIgAQGlgDl+uxr8j5MB7Yd0DASIAESIAESIAESIAESIAESIIGBItBHWjK6PvtKfqCuPY0hARIgARIgARIgARIgARIgARIYWAKU67OvyfswHdh2QMNIgARIgARIgARIgARIgARIgAQGikAfacno+uwr+YG69jSGBEiABEiABEiABEiABEiABEhgYAlQrs++Ju/DdGDbAQ0jARIgARIgARIgARIgARIgARIYKAJ9pOWgRNcDrz6GzqOvBura0xgSIAESIAESIAESIAESIAESIIGBJdBH6lKuz37gfWDbAQ0jARIgARIgARIgARIgARIgARIYKAKU67OvyfswHahrT2NIgARIgARIgARIgARIgARIgAQGlkAfacno+uwr+YFtBzSMBEiABEiABEiABEiABEiABEhgoAhQrs++Ju/DdKCuPY0hARIgARIgARIgARIgARIgARIYWAJ9pCWj67Ov5Ae2HdAwEiABEiABEiABEiABEiABEiCBgSJAuT77mrwP04G69jSGBEiABEiABEiABEiABEiABEhgYAn0kZaMrs++kh/YdkDDSIAESIAESIAESIAESIAESIAEBorAnMv1mZxtMC7soY+h8+irmdDgb0mABEiABEiABEiABEiABEiABE4fAn2k7uxE12eCskOuKz374e4+5z8XX82EBn9LAiRAAiRAAiRAAiRAAiRAAiRw+hDoo0kHS64b44x2fcydF1+dPg2LZ0oCJEACJEACJEACJEACJEACJDATAn1E7mDJdZyktn3MnRdfzeRS8bckQAIkQAIkQAIkQAIkQAIkQAKnD4E+Inew5LozzhnKdXf6NE2eKQmQAAmQAAmQAAmQAAmQAAmczgTmjVyPlU9s2sfcefHV6dzUeO4kQAIkQAIkQAIkQAIkQAIkQAJTJ9BH5A5WdH1hkg65Zh9z58VXU78w3JIESIAESIAESIAESIAESIAESOB0JtBH5A6WXI+UiwwrwzMZngRIgARIgARIgARIgARIgARI4LQgMG/kutZGKdPH3Hnx1ensGeK5kwAJkAAJkAAJkAAJkAAJkAAJTJ1AH5E7WNF1yHVNuX5a+JCm3ny5JQmQAAmQAAmQAAmQAAmQAAl8WgnMtVz//3wg0umDXe6tAAAAAElFTkSuQmCC;" vertex="1" parent="1">
          <mxGeometry x="-440" y="40" width="718" height="76.74" as="geometry" />
        </mxCell>
      </root>
    </mxGraphModel>
  </diagram>
</mxfile>
